<?xml version="1.0" encoding="UTF-8"?>
<!DOCTYPE svg PUBLIC "-//W3C//DTD SVG 1.1//EN" "http://www.w3.org/Graphics/SVG/1.1/DTD/svg11.dtd">
<!-- Creator: CorelDRAW 2019 (64-Bit Evaluation Version) -->
<svg xmlns="http://www.w3.org/2000/svg" xml:space="preserve" width="420mm" height="297mm" version="1.1" style="shape-rendering:geometricPrecision; text-rendering:geometricPrecision; image-rendering:optimizeQuality; fill-rule:evenodd; clip-rule:evenodd"
viewBox="0 0 42000 29700"
 xmlns:xlink="http://www.w3.org/1999/xlink"
 xmlns:xodm="http://www.corel.com/coreldraw/odm/2003">
 <defs>
  <style type="text/css">
   <![CDATA[
    .fil0 {fill:#d4d2d4}
   ]]>
  </style>
 </defs>
 <g id="Layer_x0020_1">
  <metadata id="CorelCorpID_0Corel-Layer"/>
  <path class="fil0" d="M8696.75 14870.71c91.04,-58.82 155.22,-102.56 270.2,-112.48 -27.04,155.28 -116.39,211.24 -152.69,439.82 -103.31,649.79 207.29,1031.25 138.39,1508.79 -267.28,-281.68 -263.33,-1504.56 -255.9,-1836.13zm6811.8 3660.69l-37.81 917.96c25.3,195.58 20.69,57.19 -54.55,111.08 -225.15,82.1 -141.63,103.5 -275.56,211.47 -58.36,397.35 -23.14,392.32 -178.27,743.13 -102.33,231.31 -227.6,427.59 -300.11,648.51 -287.51,-42.37 -936.12,-365.14 -1151.45,-509.09l-210.81 10.44c-61.23,-67.05 -37.1,-59.67 -74.44,-109l-60.05 -71.66c-3.43,-15.29 -15,-16.51 -22.95,-24.32l-7.05 -6.86c-30,59.15 167.36,590.67 -377.56,493.62 -49.14,-151.42 -63.16,-284.64 -116.11,-446.08 -110.74,-337.5 11.62,-268.32 -98.8,-462.11 -665.11,-399.24 -1138.37,-989.02 -1403.07,-1167.72 38.84,-417.15 178.93,-453.03 304.77,-957.7 98.04,-393.18 290.42,-536.93 449.65,-781.18 378.26,26.86 324.28,49.1 537.49,125.98l-164.02 -385.22c357.05,32.21 554.51,37.1 750.65,-212.41 673.77,-857.03 -1168.23,-1725.76 -1107.1,-162.9l-364.25 -204.6 88.78 545.39c-107.69,75.29 -139.1,111.92 -286.81,199.86 -6.11,-9.93 -12.03,-37.91 -14.24,-31.98l-25.91 -63.63c-55.82,-152.97 -29.44,-136.93 -130.45,-269.31 -77.69,-101.76 -178.51,-199.43 -261.79,-295.22 -88.12,-101.33 -148.83,-180.52 -243.02,-275.56 -130.07,-131.29 -214.67,-136.28 -235.5,-325.93 80.74,-93.86 397.92,-281.77 592.51,-149.44 95.74,65.08 52.01,167.17 224.21,147.04 174.65,-20.41 293.44,-171.35 293.44,-171.31l9.97 -46.32c17.96,-82.9 -3.76,-0.89 16.03,-74.58 223.32,-830.59 -936.12,-695.59 -1303.76,-886.13 -133.69,-69.32 -127.29,-128.8 -333.64,-187.21 -354.37,-100.25 -553.9,105.62 -864.4,156.22l108.2 -820.86c-410.43,-2.97 -239.4,179.21 -499.21,208.18 -66.26,-193.56 69.55,-226.66 -149.59,-202.92 -123.44,13.36 -99.27,86.44 -168.91,198.87l-292.49 16.04c-34.47,-88.5 -40.21,-197.65 -155.56,-210.58 -219.8,-24.64 -73.74,13.54 -149.16,199.39 -336.98,-79.9 -66.26,-216.88 -493.34,-208.79l134.63 1013.8c217.82,0.56 170.14,6.63 345.63,112.95 34.75,480.03 -11.94,1385.11 -228.25,1824.42 -4.14,8.37 -10.49,17.73 -14.63,26.14l-66.35 219.23c-48.3,221.77 39.55,35.84 -136.42,199.62 -7.9,121.33 5.74,226.57 -35.64,342.63 -88.74,248.8 -229.48,75.05 -207.76,421.52 16.41,262.07 210.34,261.84 -88.17,475.19 -154.62,110.55 -128.85,26.9 -171.92,208.6 714.91,181.84 2832.95,-96.59 3311.52,104.77 484.17,203.66 1471.64,1401.48 1670.5,1778.66 245.71,86.2 175.27,149.63 283.28,381.32l96.68 139.43c90.24,-104.91 -117.13,-292.16 -91.79,-542.66 23,-226.99 256.43,-322.17 386.4,-160.07 5.32,6.63 302.18,656.46 116.3,822.41 -46.28,41.29 -84.7,46.84 -122.83,81.07 -86.25,77.45 -39.17,-17.87 -63.67,94.47l771.44 969.56c227.22,253.65 631.96,641.56 1097.03,664.88 176.11,660.6 1016.3,826.32 1629.97,943.69 271.15,51.82 258.12,212.6 428.35,449.18 1066.71,1482.83 1654.28,-77.68 1859.5,-383.86 437.7,-62.64 855.33,-135.29 1235.33,-280.65 462.82,-177.04 598.53,-298.6 792.98,-715.33 379.68,-15.29 700.67,-237.15 964.1,-475.05 694.84,-627.59 1396.96,-1696.93 1935.77,-2402.3 336.84,-440.95 894.13,-1177.87 1472.44,-1435.47 515.72,-229.81 2265.27,104.81 2734.39,-162.29 33.15,-232.02 39.87,-447.25 -173.67,-539.46 195.34,-592.56 -159.6,-394.16 -328.23,-712.94 -48.9,-92.45 -47.21,-218.25 -103.83,-299.83l-285.3 -465.31c-294.14,-610.81 -337.07,-1312.65 -127.62,-1956.6 166.89,-513.18 144.74,-287.18 318.83,-441 31.97,-28.26 59.86,-37.67 60.47,-131.11 1.6,-235.54 -140.42,-16.08 -170.89,-339.94l-204.51 -50.69c-12.23,-269.31 57.37,-88.83 41.34,-273.5 -8.66,-99.31 -57.66,-112.9 -25.87,-327.62 49,-331.47 174.75,-293.95 297.01,-479.79 -7.76,-5.36 -22.57,-18.29 -26.47,-9.87 -3.81,8.27 -20.98,-7.67 -26.39,-8.89l-138.77 -17.45c-174.5,-4.75 -54.92,-9.87 -211.7,27.04 -113.61,-345.82 -216.36,-272.41 -327.48,-461.5 -75.29,-128.14 49.75,-41.1 -71.76,-198.02 -224.21,11.1 -125.46,13.07 -169.1,109.05 -73.22,161.11 98.47,-8.61 -126.21,188.48 -147.38,129.27 -153.54,153.62 -233.39,360.16 -110.13,-30.43 -302.55,-59.25 -394.77,11 230.94,361.1 353.63,225.11 271,780.75 -42.98,288.73 62.31,-49.8 41.43,294.23l-211.05 49.19c-9.49,331.34 -124,67.95 -163.88,318.22 -42.79,268.65 391.44,1.41 500.86,1224.8 34.05,380.48 -4.7,706.5 -120.57,1032.05 -64.66,181.8 -267,703.77 -428.3,743.79 -69.74,-126.87 -111.02,-319.53 -86.57,-501.42 52.24,-56.01 131.06,-114.55 198.3,-158.99l256.9 -119.68 -186.22 -70.21c-76.6,-20.45 -106.09,-17.77 -173.1,-49.23 125.04,-61.98 195.3,-12.23 344.93,-119.45 -35.6,-40.91 -1.74,-11.19 -68.99,-52.76 -158.14,-97.81 -272.5,-135.66 -186.12,-354.23 81.02,-204.89 658.86,-507.92 -83.89,-1166.22 -270.44,-239.68 -189.37,-102.79 -210.39,-281.01 -0.99,-8.38 88.69,-60.43 -64.94,-123.68 -247.92,-102.09 -238.18,46.37 -256.57,174.23 -13.78,95.64 -34.56,47.49 -53.23,209.59 -19.33,167.73 13.36,367.26 -3.15,557.1l-138.68 -497.01c-309.23,156.22 -532.55,604.22 -204.51,971.06 104.45,116.86 139.15,205.03 143.52,368.35 -101.01,79.33 -234.74,109.94 -303.64,203.28 148.79,88.74 249.14,50.51 373.47,110.75l-351.27 119.44 455.48 276.03c12.93,197.41 -22.85,349.3 -86.99,517.75 -70.78,185.93 -169.34,268.46 -230.14,403.42 -384.52,-37.53 -575.21,-249.47 -796.93,-403.19l91.89 -528.51 -387.53 193.23c150.94,-839.4 -689.67,-1084.91 -1067.04,-661.92 -184.06,206.25 -221.96,526.15 -46.09,810.23 156.31,252.57 403.81,266.02 763.97,223.74l-104.11 353.02 433.33 -98.42c185.04,173.66 316.52,331.57 428.67,587.71 136.19,310.83 24.27,373.75 218.67,658.67 198.44,290.85 -129.93,484.5 -319.82,671.61 -88.21,86.86 -160.26,184.1 -254.35,262.82 -575.4,481.2 -2052.11,1629.73 -2908.2,1781.95 -125.74,-151.98 -317.22,-598.95 -406.43,-820.11 -239.64,-594.06 144.84,-435.96 -433.85,-804.02l-5.5 -988.56 -245.33 -64.23c-13.68,-154.38 17.92,-311.31 -30.42,-448.24 -107.41,-304.3 -218.81,-169.38 -389.27,-1087.21 -288.03,-1550.73 -435.97,-4143.34 -337.41,-5653.31 104.92,-68.09 228.07,-71.24 366.47,-90.24 133.17,-18.34 241.33,-56.94 384.42,-94.56 594.58,-156.22 702.46,-490.66 75.38,-699.17 -298.88,-99.36 -429.33,-390.96 -436.29,-668.03 -0.47,-18.38 1.97,-151.51 3.62,-164.91 29.39,-237.57 195.95,-135.25 162.57,-381.89 -16.46,-121.32 -94.05,-137.88 -155.94,-250.22 29.72,-388.42 531.8,-1187.75 691.69,-1580.12 -7.53,-215.56 45.89,-40.16 -94.29,-155.37 -160.3,-131.81 -402.29,-344.36 -627.31,-300.02 -118.45,23.37 -201.5,48.16 -262.77,117.89 126.03,493.71 105.05,885.05 -236.86,1173.69 -316.1,266.82 -821.81,318.69 -1183.71,43.55 -694.27,-527.86 -499.07,-1711.47 678.76,-1727.17 277.63,-46.7 -41.53,-114.46 258.96,-189.51 79.94,-19.99 915.52,-87.23 968.38,-329.6 -83.38,-92.87 -184.67,-140.13 -325.13,-211.98 -328.42,-167.98 53.14,-106.56 -298.98,-305.19 151.18,-339.33 230.09,-233.48 34.14,-623.22 -44.72,-88.93 -47.68,-142.53 -70.49,-259.25 -191.82,-67.15 -210.06,86.57 -200.89,-429.71 442.12,-68.66 607.04,142.44 623.69,-277.59 8.51,-214.99 27.88,-785.12 -48.44,-930.1l-550.09 -26.05c-87.85,-304.34 -9.69,-351.46 50.41,-558.28 -167.55,-108.62 -176.3,-13.68 -290.05,-218.33 -74.58,-134.21 -112.53,-256.62 -300.02,-265.55 -171.4,-8.14 -230,106.28 -298.13,221.53 -155.84,263.62 -92.13,109.81 -285.87,261.04 15.52,216.17 99.22,181.32 59.72,555.5l-463.57 19.28c-219.46,42.51 -149.44,238.32 -149.06,579.81 0.18,184.2 -29.86,423.84 25.34,594.11 169.72,80.84 381.04,16.27 585.27,50.84l16.41 350.19c-179.25,129.69 -121.46,-50.79 -223.36,140.13 -42.56,79.76 -45.01,158.38 -114.88,283.7 -161.77,290.24 -12.09,334.35 84.87,531.95 -199.99,132.28 -57.6,-46.04 -161.05,153.95 -69.98,135.29 33.43,79.71 -176.86,175.41 -230.94,105.05 -266.4,133.03 -398.12,307.49 -328.18,8.79 -475.84,-75.43 -732.64,102.37 -20.83,394.21 389.51,1262.8 550.14,1582.38 120.1,239.08 229.67,452.52 350.15,686.19 303.17,588.13 11.38,365.14 -30.19,774.54 135.95,268.89 164.63,14.62 164.82,437.23 0.19,363.04 -12.93,226.29 -161.06,471.9 -151.75,251.58 -77.59,165.19 -366.46,269.07 -163.88,58.92 -284.08,137.17 -333.46,294.94 98.99,456.47 888.54,379.16 1252.37,534.06 112.34,442.83 -53.71,3233.84 -105.39,3846.29 -52.34,620.58 -119.2,1176.7 -209.87,1781.95 -37.19,248.48 -121.7,567.31 -204.7,791.71 -149.11,403 -244.05,176.01 -232.49,769.93 -7.85,6.02 -23.13,0.19 -27.36,11.71 -4.24,11.48 -21.73,8.98 -27.56,11.1 -194.07,70.02 -16.08,-54.83 -156.64,54.6z"/>
  <path class="fil0" d="M32063.68 28370.83c-33.25,-22.38 -8.42,-12.88 -83.29,-46.74 -47.07,-21.3 -68.89,-28.07 -120.52,-45.05l-3392.26 -1022.45c-649.04,-196.1 -1550.31,-95.46 -2267.82,-92.17 -610.7,2.77 -1836.07,-61.89 -2373,22.24l2296.07 1183.42c305.99,49.1 5628.1,16.51 5940.82,0.75z"/>
  <path class="fil0" d="M14296.16 28399.61l5644.42 2.4c-88.32,-339.99 -482.24,-832.38 -574.22,-1209.38l-3919.65 8.61c-293.95,6.67 -322.87,159.22 -635.54,528.74l-515.01 669.63z"/>
  <path class="fil0" d="M3300.43 28401.78c1453.16,24.78 2929.87,0.33 4385.76,0.33 1000.26,0 757.66,45.19 1758.48,-426.99 130.83,-61.74 1410.88,-626.41 1516.88,-734.01l-3275.36 11.15c-494.14,1.83 -553.44,9.31 -980,131.62 -500.25,143.38 -3191.37,876.21 -3405.76,1017.9z"/>
  <path class="fil0" d="M19437.18 27162.68l4154.34 -12.93c-44.39,-59.77 -668.07,-386.55 -783.1,-448.76 -491.59,-265.78 -423.55,-217.73 -1067.79,-214.72 -822.46,3.86 -1803.86,61.32 -2606.24,8.33 62.21,231.45 207.52,473.54 302.79,668.08z"/>
  <path class="fil0" d="M18654.03 5991.75c-52.86,242.37 -888.44,309.61 -968.38,329.6 -300.49,75.05 18.67,142.81 -258.96,189.51 223.74,143.19 108.29,187.01 268.69,381.46 158.2,191.82 263.15,88.64 473.12,128.47 61.27,-69.73 144.32,-94.52 262.77,-117.89 225.02,-44.34 467.01,168.21 627.31,300.02 140.18,115.21 86.76,-60.19 94.29,155.37 220.97,-211.28 341.07,-0.05 428.58,-381.65 202.11,185.09 341.16,227.22 521.88,-34 61.18,-88.5 313.14,-475.28 326.35,-512.52 -93.48,-120.67 -148.27,-163.04 -361.24,-177.43 -151.28,99.13 -403.71,495.83 -450.45,638.17 -100.82,-129.36 0.8,-117.37 84.45,-426.89 53.38,-197.41 144.37,-302.46 128.19,-472.92 -92.68,-33.16 -225.76,-90.15 -352.49,-45.62 -251.26,88.36 54.07,114.65 -254.59,164.12l92.77 -226.8c-111.11,-59.63 -238.88,-129.32 -386.21,-73.74 -247.3,93.4 -0.61,271.34 -276.08,182.74z"/>
  <path class="fil0" d="M11324.25 27196.44c324.05,-2.12 3694.82,16.32 3834.44,-32.68l580.7 -643.96c-686.13,9.97 -2952.67,-43.21 -3216.72,73.46 -137.69,60.85 -268.79,125.97 -407.8,191.53 -143.51,67.67 -239.35,112.81 -381.46,175.87 -69.64,30.89 -129.08,56.05 -190.45,83.8l-218.71 151.98z"/>
  <path class="fil0" d="M21842.77 11783.12c-296.96,35.65 -319.58,239.22 -133.55,380.34l-55.96 33.1c-257.5,144.37 -249.93,159.46 -137.5,432.21 -377.42,5.03 -326.07,342.95 -102.37,458.16l694.84 234.09c134.25,-352.27 78.06,-417.72 -109.29,-497.1l-234.79 -107.78c285.86,23.46 557.71,218.38 623.92,4.61 118.31,-381.75 -185.42,-374.79 -402.44,-429.2 184.06,-10.34 407.52,81.21 524.7,45.62 73.08,-101.3 107.31,-269.83 3.67,-392.99 -81.02,-96.4 -286.66,-92.97 -436.15,-101.85 10.01,-5.88 25.63,-24.79 31.32,-15.38l269.07 -61.93c130.17,-8.66 213.63,3.9 344.36,-14.82 46.84,-193.22 -26.99,-325.59 -89.53,-430.93 -165.06,-15 -483.65,11.9 -655.57,33.76 -324.19,41.29 -250.17,242.84 -134.73,430.09z"/>
  <path class="fil0" d="M25743.98 26437.37c-579.43,-191.11 -1113.3,-412.64 -1773.72,-407.42 -751.31,5.92 -1503.52,9.78 -2254.55,12.65 37.71,53.93 586.87,361.71 682.19,395.05 212.08,74.16 3129.02,29.25 3346.08,-0.28z"/>
  <path class="fil0" d="M15881.08 26513.69l3138.19 -15.24 -154.43 -426.56c-548.82,-24.92 -1151.44,2.68 -1702.86,4.85 -835.58,3.34 -777.27,-100.87 -1073.9,181.75 -138.3,131.76 -137.69,94.42 -207,255.2z"/>
  <path class="fil0" d="M21079.61 25729.88l-2261.18 30.71 100.44 292.26 2638.18 -16.7c-116.57,-72.27 -356.45,-201.97 -461.45,-293.34l2251.63 -24.59c-527.76,-148.27 -489.48,-215.09 -1168.66,-209.78 -466.34,3.62 -959.58,-7.66 -1421.97,12.94l323.01 208.5z"/>
  <path class="fil0" d="M10126.15 26380.8l-20.31 179.35c992.41,-99.5 2168.92,117.19 2751.74,-148.13 205.12,-93.39 472.69,-187.01 640.24,-305.94 -391.2,-14.72 -2312.44,-30.8 -2663.71,74.44 -205.36,61.51 -505.28,164.21 -707.96,200.28z"/>
  <path class="fil0" d="M12170.41 25794.31l2025.02 -0.1c-8.32,9.55 -21.68,9.55 -26.99,26.38l-248.62 142.16c-89.53,38.94 -166.09,84.27 -243.73,116.38 362.56,44.44 1734.32,-4.18 2292.64,-1.17 197.18,1.03 346.72,-12.13 478.01,-298l-2133.09 18.63c36.07,-38.05 24.79,-31.89 83.33,-69.22 36.16,-23.09 69.6,-38.56 113,-58.36 82.62,-37.72 104.21,-38.09 177.85,-86.67 -383.96,-45.24 -981.36,-5.78 -1387.89,-1.97 -618.65,5.83 -688.02,140.22 -1129.53,211.94z"/>
  <path class="fil0" d="M10364.29 22245.54c-280.03,-74.58 -394.92,-291.83 -632.72,-112.71 -85.82,274.2 55.96,366.79 242.51,442.59 312.95,127.16 369.85,209.78 499.12,225.58 163.45,-139.48 66.82,-103.31 142.06,-258.82 74.96,-155 129.88,-76.04 214.81,-229.3 156.02,-281.58 -110.98,-371.63 -264.42,-487.97 -12.28,-9.31 -356.26,-398.3 -513.14,-122.83 -67.29,118.17 -23.74,236.91 64.29,332.93 82.15,89.59 147.98,93.91 247.49,210.53z"/>
  <path class="fil0" d="M16561.95 25771.17l2156.46 -17.63c-40.12,-328.42 -248.91,-214.48 -1078.66,-204.37 -213.44,2.58 -426.18,4.61 -639.58,3.99 -269.17,-0.7 -331.24,48.82 -438.22,218.01z"/>
  <path class="fil0" d="M10330.1 27150.07c26.1,-207.42 46.55,-425.94 -188.8,-469.63 -1043.48,-193.65 -860.18,355.65 -544.08,420.16 96.21,19.61 614.99,47.41 732.88,49.47z"/>
  <path class="fil0" d="M12165.61 20992.24c96.83,253 25.02,151.33 224.41,295.22 24.5,-112.34 -22.58,-17.02 63.67,-94.47 38.13,-34.23 76.55,-39.78 122.83,-81.07 185.88,-165.95 -110.98,-815.78 -116.3,-822.41 -129.97,-162.1 -363.4,-66.92 -386.4,160.07 -25.34,250.5 182.03,437.75 91.79,542.66z"/>
  <path class="fil0" d="M12543.03 20038.49c110.42,193.79 -11.94,124.61 98.8,462.11 52.95,161.44 66.97,294.66 116.11,446.08 544.92,97.05 347.56,-434.47 377.56,-493.62 -95.79,-158.76 -93.68,-357.11 -223.23,-463.29 -282.43,-114.79 -122.36,62.36 -369.24,48.72z"/>
  <path class="fil0" d="M9996.84 26019.46c38.18,-181.75 73.83,-418.71 -171.69,-465.64 -1013.24,-193.69 -898.59,348.55 -541.21,420.21 79.94,16.09 621.86,47.55 712.9,45.43z"/>
  <path class="fil0" d="M13142.55 20459.92c7.95,7.81 19.52,9.03 22.95,24.32l60.05 71.66c37.34,49.33 13.21,41.95 74.44,109l210.81 -10.44c155.04,-179.21 219.37,-123.58 115.31,-456.7 -43.97,-140.6 -70.92,-408.17 -187.07,-492.58 -165.29,-120.1 -454.96,17.11 -282.1,487.74 5.03,13.63 41.76,117.14 41.99,120.85 9.08,137.92 31.28,65.46 -56.38,146.15z"/>
  <path class="fil0" d="M12068.93 20852.81c-108.01,-231.69 -37.57,-295.12 -283.28,-381.32 -228.54,84.5 -267.28,209.97 -201.83,451.67 29.11,107.64 115.87,476.69 163.42,554.09 324.32,34.19 436.95,-132.89 345.2,-425.1 -15.47,-49.19 -25.86,-47.3 -34.56,-114.08 -10.67,-82.11 -14.72,-40.82 11.05,-85.26z"/>
  <path class="fil0" d="M22576.07 9344.99c-5.92,-246.88 -113.37,-443.07 -364.58,-378.27 -106.09,27.32 -539.89,159.79 -587.71,217.02 -183.87,219.89 51.16,402.11 341.02,339.52 90.43,-19.52 510.36,-143.29 611.27,-178.27z"/>
  <path class="fil0" d="M20347.11 16219.47c171.12,-123.53 268.32,-373.18 9.02,-522.58 -199.38,-114.93 -762.83,-486.71 -733.53,-33.15 15.75,243.3 583.95,499.73 724.51,555.73z"/>
  <path class="fil0" d="M10105.84 26560.15l20.31 -179.35 -48.85 -206.49c-139.53,-70.44 -635.73,-111.12 -836.81,-71.57 -162.75,168.21 -126.45,366.14 124.81,430.61 134.44,34.51 652.79,74.44 740.54,26.8z"/>
  <path class="fil0" d="M22333.76 8779.14c33.2,-228.02 -134.92,-421.44 -346.48,-354.14 -987.43,313.98 -619.27,720.08 -237.15,606 55.82,-16.69 494.8,-210.24 583.63,-251.86z"/>
  <path class="fil0" d="M21634.31 14283.05c103.22,-222.85 178.32,-398.4 -97.95,-521.04 -134.4,-59.67 -485.86,-237.24 -606.57,-190.07 -241.99,94.52 -108.68,376.71 85.54,471.61 127.48,62.26 513.6,229.24 618.98,239.5z"/>
  <path class="fil0" d="M9513.99 22709.16c-240.39,146.81 -37.53,382.03 169.47,437.71 112.82,30.33 562.89,157.29 605.63,133.08 133.88,-75.86 142.49,-417.82 -131.1,-490.75 -186.08,-49.62 -501.66,-166.94 -644,-80.04z"/>
  <path class="fil0" d="M9106.85 24450.39c-129.18,434.74 269.4,421.95 782.11,436.67l123.87 -12.65c299.59,-585.6 -724.89,-513.93 -905.98,-424.02z"/>
  <path class="fil0" d="M18754.57 17504.89c627.35,-22.94 176.76,-639.67 157.48,-680.3 -70.06,-147.8 -45.23,-213.12 -165.62,-277.35 -311.63,-166.14 -454.87,278.15 8.14,957.65z"/>
  <path class="fil0" d="M20725.79 15763.71c509.56,-529.03 -614.33,-758.55 -635.39,-752.25 -265.41,79.28 -131.06,370.55 71.76,482.19 130.63,71.9 485.95,265.69 563.63,270.06z"/>
  <path class="fil0" d="M21382.31 14820.63c176.01,-167.73 208.69,-395.85 -32.97,-516.14 -114.27,-56.85 -490.32,-251.44 -595,-227.84 -273.92,61.75 -138.44,370.75 66.82,478.43 154.85,81.26 462.11,257.75 561.15,265.55z"/>
  <path class="fil0" d="M10084.3 24306.68c38.52,-90.24 45.19,-186.97 10.58,-294.84 -90.1,-280.74 -852.98,-166.85 -906.12,-111.73 -152.07,157.58 21.26,362.89 218.15,391.62 136.51,19.98 590.26,49.51 677.39,14.95z"/>
  <path class="fil0" d="M22759.56 11190.28c42.61,-221.01 -6.16,-284.54 -98.32,-411.65 -266.21,-42.98 -975.25,-58.55 -865.35,290.28 46.93,148.79 223.32,178.22 412.5,163.74 155.27,-11.9 419.55,3.9 551.17,-42.37z"/>
  <path class="fil0" d="M9275.1 23373.9c-7.62,238.6 89.44,349.02 329.6,362.14 141.92,7.71 512.47,37.9 605.96,30.05 81.68,-204.47 30.38,-312.76 -55.12,-446.64 -295.31,-44.91 -680.16,-99.56 -880.44,54.45z"/>
  <path class="fil0" d="M14257.55 20048.41l-69.69 -92.4c-273.59,-449.93 -159.88,-633.05 -534.86,-543.98 -194.35,354.56 84.32,562.36 205.6,956.85 258.87,3.53 342.71,-108.67 398.95,-320.47z"/>
  <path class="fil0" d="M11268.71 21720.28c263.67,57.89 466.21,-182.41 301.38,-459.76 -130.02,-218.71 -247.11,-582.83 -539.51,-452.38 -273.26,218.52 177.56,616.73 238.13,912.14z"/>
  <path class="fil0" d="M20984.81 6868.06c-65.51,-241.95 -282.86,-343.42 -479.42,-201.69 -98.52,71.01 -119.3,142.53 -218.9,220.03 -75.52,58.78 -201.74,96.16 -226.66,227.64 -37.38,196.99 169.95,370.42 452.99,159.65 52.62,-39.17 431.03,-356.07 471.99,-405.63z"/>
  <path class="fil0" d="M10003.33 25421.5c62.4,-234.75 6.72,-417.44 -246.18,-437.38 -174.88,-13.73 -553.81,-54.97 -646.82,30.42 -177.43,162.8 -17.26,373.05 209.59,403.57 116.99,15.71 237.47,3.29 357.95,13.5 43.4,3.66 149.35,21.86 174.93,22.19 106.7,1.32 65.74,13.83 150.53,-32.3z"/>
  <path class="fil0" d="M19909.16 16679.56c562.47,-354.94 -421.81,-857.58 -441.09,-859.09 -318.73,-24.73 -241.94,350.38 -51.11,497.47l327.43 269.46c133.27,114.41 -12.7,54.87 164.77,92.16z"/>
  <path class="fil0" d="M22697.3 9973.57c110.09,-709.84 -922.67,-247.45 -956.67,-194.73 -130.3,202.06 75.34,354.99 303.88,335.94 60.8,-5.08 625.94,-126.5 652.79,-141.21z"/>
  <path class="fil0" d="M21784.65 10501.42c289.86,225.1 320.61,118.88 974.91,12.13 93.07,-327.01 -137.73,-462.86 -426.23,-387.81 -335,87.18 -551.93,-5.65 -548.68,375.68z"/>
  <path class="fil0" d="M21860.08 13800.57c451.62,-588.98 -684.64,-681.29 -702.32,-674.47 -203.43,78.25 -136.79,348.22 84.22,454.63 116.06,55.92 544.88,213.73 618.1,219.84z"/>
  <path class="fil0" d="M21282.8 7306c-160.82,-588.23 -653.03,-6.59 -705.89,31.93 -81.39,59.25 -180.38,91.37 -212.5,224.35 -69.6,288.45 261.69,311.35 443.07,165.95l475.32 -422.23z"/>
  <path class="fil0" d="M15140.63 19771.91c50.6,-255.21 -19.8,-270.77 -118.64,-495.69 -62.59,-142.44 -77.64,-407.56 -319.77,-354.33 -324.33,71.24 -83.52,555.83 47.02,870.8 4.09,9.92 8.51,20.5 12.89,29.91 26.14,55.82 21.02,47.4 50.83,84.36 196.75,-19.42 209.73,-71.24 327.67,-135.05z"/>
  <path class="fil0" d="M14660.63 19981.91c50.6,-255.21 -19.8,-270.77 -118.64,-495.69 -62.59,-142.44 -77.64,-407.56 -319.77,-354.33 -324.33,71.24 -83.52,555.83 47.02,870.8 4.09,9.92 8.51,20.5 12.89,29.91 26.14,55.82 21.02,47.4 50.83,84.36 196.75,-19.42 209.73,-71.24 327.67,-135.05z"/>
  <path class="fil0" d="M11268.71 21720.28l-40.02 -38.23c-4.04,-3.95 -15.14,-14.53 -20.12,-19.42l-256.99 -264.28c-131.58,-161.2 -138.54,-247.73 -414.01,-208.56 -100.54,230.89 -61.32,334.02 85.07,497.62 78.91,88.17 248.53,313.89 368.16,409.96 195.2,-57.79 240.53,-171.74 277.91,-377.09z"/>
  <path class="fil0" d="M22057.77 8181.93c-169.38,-691.55 -928.6,171.31 -932.92,183.02 -108.25,291.31 252.38,337.96 460.88,181.7 80.09,-60 136.33,-125.56 218.86,-181.89 105.61,-72.09 156.35,-68.09 253.18,-182.83z"/>
  <path class="fil0" d="M21688.25 7783.77c-183.44,-701.05 -942.09,131.9 -943.32,135.05 -121.46,311.07 268.23,313.61 430.47,216.22 100.16,-60.14 138.77,-108.72 229.48,-169.57 108.2,-72.65 193.6,-81.68 283.37,-181.7z"/>
  <path class="fil0" d="M21065.92 15265.44c59.07,-128.85 108.82,-203.57 80.09,-409.49 -130.5,-93.02 -281.77,-137.74 -439.59,-226.9 -514.68,-290.75 -634.08,212.18 -147.23,429.39 162.04,72.32 341.68,216.26 506.73,207z"/>
  <path class="fil0" d="M19351.78 17097.71c512.29,-277.68 41.01,-547.37 -79.19,-713.37 -360.72,-498.41 -609.58,-53.28 -352.5,269.41 83.05,104.2 129.75,135.57 215.05,224.87 116.76,122.22 73.92,152.78 216.64,219.09z"/>
  <path class="fil0" d="M15416.19 19560.44c75.24,-53.89 79.85,84.5 54.55,-111.08l37.81 -917.96c-74.63,96.07 -46.27,39.4 -72.23,200.65 -99.08,-219.14 -276.32,-259.11 -403,-46.65 -83.61,194.35 236.58,818.51 246.5,824.86 104.96,67.53 -138.67,-2.44 50.51,15.19 81.82,7.62 49.23,-1.41 89.48,-24.27l-3.62 59.26z"/>
  <path class="fil0" d="M14257.55 20048.41l0 0z"/>
 </g>
</svg>
