<?xml version="1.0" encoding="UTF-8"?>
<!DOCTYPE svg PUBLIC "-//W3C//DTD SVG 1.1//EN" "http://www.w3.org/Graphics/SVG/1.1/DTD/svg11.dtd">
<!-- Creator: CorelDRAW 2019 (64-Bit Evaluation Version) -->
<svg xmlns="http://www.w3.org/2000/svg" xml:space="preserve" width="210mm" height="297mm" version="1.1" style="shape-rendering:geometricPrecision; text-rendering:geometricPrecision; image-rendering:optimizeQuality; fill-rule:evenodd; clip-rule:evenodd"
viewBox="0 0 21000 29700"
 xmlns:xlink="http://www.w3.org/1999/xlink"
 xmlns:xodm="http://www.corel.com/coreldraw/odm/2003">
 <defs>
  <style type="text/css">
   <![CDATA[
    .fil0 {fill:black}
    .fil1 {fill:black;fill-rule:nonzero}
   ]]>
  </style>
 </defs>
 <g id="Layer_x0020_1">
  <metadata id="CorelCorpID_0Corel-Layer"/>
  <g id="_2059384039392">
   <path class="fil0" d="M4404.76 11500.93c58.31,-37.67 99.42,-65.69 173.06,-72.04 -17.32,99.45 -74.54,135.29 -97.79,281.7 -66.17,416.18 132.76,660.5 88.63,966.36 -171.19,-180.42 -168.66,-963.65 -163.9,-1176.02zm4362.87 2344.62l-24.22 587.94c16.21,125.27 13.25,36.63 -34.94,71.15 -144.2,52.58 -90.71,66.29 -176.49,135.44 -37.38,254.5 -14.82,251.28 -114.18,475.97 -65.54,148.15 -145.77,273.86 -192.21,415.36 -184.15,-27.14 -599.58,-233.87 -737.49,-326.07l-135.02 6.69c-39.22,-42.94 -23.77,-38.22 -47.68,-69.81l-38.46 -45.9c-2.2,-9.79 -9.61,-10.57 -14.7,-15.58l-4.52 -4.39c-19.21,37.89 107.19,378.32 -241.82,316.16 -31.47,-96.98 -40.45,-182.31 -74.37,-285.71 -70.92,-216.16 7.45,-171.86 -63.28,-295.98 -425.99,-255.7 -729.11,-633.45 -898.64,-747.91 24.87,-267.17 114.6,-290.16 195.2,-613.39 62.79,-251.83 186.01,-343.9 287.99,-500.34 242.27,17.21 207.7,31.45 344.26,80.69l-105.06 -246.72c228.69,20.63 355.16,23.76 480.79,-136.05 431.54,-548.92 -748.24,-1105.33 -709.09,-104.34l-233.29 -131.04 56.86 349.32c-68.98,48.22 -89.09,71.68 -183.7,128 -3.91,-6.36 -7.71,-24.28 -9.12,-20.48l-16.6 -40.75c-35.75,-97.98 -18.85,-87.71 -83.55,-172.49 -49.76,-65.18 -114.33,-127.74 -167.67,-189.09 -56.44,-64.9 -95.32,-115.62 -155.65,-176.49 -83.31,-84.09 -137.49,-87.29 -150.84,-208.75 51.72,-60.12 254.87,-180.47 379.5,-95.72 61.32,41.68 33.31,107.07 143.6,94.18 111.86,-13.07 187.95,-109.75 187.95,-109.72l6.38 -29.67c11.51,-53.1 -2.41,-0.57 10.27,-47.77 143.03,-531.98 -599.57,-445.51 -835.04,-567.55 -85.63,-44.4 -81.53,-82.5 -213.69,-119.91 -226.97,-64.21 -354.77,67.65 -553.64,100.06l69.3 -525.75c-262.87,-1.9 -153.33,114.78 -319.74,133.34 -42.44,-123.98 44.55,-145.18 -95.81,-129.97 -79.06,8.55 -63.58,55.36 -108.18,127.37l-187.34 10.27c-22.08,-56.68 -25.75,-126.59 -99.63,-134.87 -140.78,-15.78 -47.23,8.67 -95.54,127.71 -215.83,-51.18 -42.44,-138.91 -315.98,-133.73l86.23 649.33c139.51,0.35 108.98,4.24 221.38,72.34 22.25,307.45 -7.65,887.14 -146.2,1168.52 -2.65,5.36 -6.71,11.35 -9.37,16.74l-42.49 140.41c-30.94,142.04 25.33,22.96 -87.38,127.86 -5.06,77.71 3.68,145.11 -22.82,219.45 -56.84,159.35 -146.98,48.06 -133.07,269.97 10.51,167.86 134.72,167.71 -56.47,304.36 -99.04,70.8 -82.53,17.23 -110.12,133.6 457.89,116.47 1814.47,-61.86 2120.99,67.11 310.1,130.44 942.56,897.63 1069.93,1139.2 157.38,55.21 112.26,95.84 181.44,244.24l61.92 89.3c57.8,-67.2 -75.02,-187.13 -58.79,-347.57 14.73,-145.38 164.24,-206.34 247.48,-102.52 3.41,4.25 193.55,420.45 74.49,526.74 -29.64,26.45 -54.25,30 -78.67,51.93 -55.24,49.6 -25.09,-11.45 -40.78,60.5l494.1 620.99c145.53,162.46 404.76,410.91 702.63,425.85 112.8,423.11 650.93,529.25 1043.98,604.42 173.67,33.19 165.32,136.17 274.35,287.69 683.21,949.74 1059.54,-49.75 1190.98,-245.85 280.35,-40.12 547.83,-86.65 791.22,-179.75 296.43,-113.4 383.35,-191.25 507.89,-458.16 243.18,-9.8 448.77,-151.9 617.49,-304.27 445.04,-401.96 894.74,-1086.86 1239.84,-1538.64 215.74,-282.42 572.68,-754.41 943.08,-919.4 330.31,-147.19 1450.87,67.13 1751.34,-103.94 21.23,-148.61 25.53,-286.46 -111.23,-345.52 125.11,-379.53 -102.23,-252.45 -210.23,-456.63 -31.32,-59.21 -30.24,-139.79 -66.5,-192.04l-182.73 -298.02c-188.4,-391.22 -215.89,-840.74 -81.74,-1253.18 106.89,-328.68 92.7,-183.93 204.2,-282.45 20.48,-18.1 38.34,-24.13 38.73,-83.98 1.03,-150.86 -89.93,-10.3 -109.45,-217.72l-130.99 -32.47c-7.83,-172.49 36.75,-56.89 26.48,-175.17 -5.54,-63.61 -36.93,-72.31 -16.57,-209.84 31.39,-212.3 111.93,-188.27 190.23,-307.3 -4.97,-3.43 -14.45,-11.71 -16.95,-6.32 -2.44,5.3 -13.44,-4.91 -16.9,-5.69l-88.88 -11.18c-111.77,-3.04 -35.18,-6.32 -135.59,17.32 -72.77,-221.49 -138.58,-174.48 -209.75,-295.59 -48.22,-82.07 31.86,-26.32 -45.96,-126.83 -143.61,7.11 -80.36,8.38 -108.31,69.85 -46.89,103.19 63.07,-5.52 -80.83,120.72 -94.4,82.79 -98.34,98.39 -149.49,230.68 -70.53,-19.49 -193.78,-37.95 -252.84,7.04 147.91,231.28 226.49,144.18 173.57,500.06 -27.53,184.93 39.91,-31.89 26.54,188.45l-135.18 31.51c-6.08,212.22 -79.42,43.52 -104.96,203.81 -27.41,172.07 250.71,0.91 320.79,784.47 21.81,243.69 -3.01,452.51 -77.22,661.02 -41.42,116.44 -171.01,450.75 -274.32,476.38 -44.67,-81.25 -71.11,-204.65 -55.45,-321.15 33.46,-35.87 83.94,-73.37 127.01,-101.83l164.54 -76.65 -119.27 -44.97c-49.06,-13.1 -67.95,-11.38 -110.87,-31.53 80.09,-39.7 125.09,-7.84 220.92,-76.51 -22.8,-26.2 -1.11,-7.17 -44.18,-33.79 -101.29,-62.65 -174.54,-86.89 -119.21,-226.88 51.89,-131.23 421.99,-325.32 -53.73,-746.95 -173.21,-153.51 -121.29,-65.84 -134.75,-179.98 -0.64,-5.37 56.8,-38.71 -41.6,-79.22 -158.79,-65.39 -152.55,29.7 -164.33,111.59 -8.82,61.26 -22.13,30.42 -34.09,134.24 -12.38,107.43 8.56,235.23 -2.02,356.82l-88.82 -318.33c-198.06,100.06 -341.09,386.99 -130.99,621.95 66.9,74.85 89.13,131.32 91.93,235.92 -64.7,50.81 -150.35,70.42 -194.48,130.2 95.3,56.84 159.57,32.35 239.2,70.94l-224.98 76.5 291.73 176.79c8.28,126.44 -14.64,223.72 -55.72,331.61 -45.33,119.09 -108.46,171.95 -147.4,258.39 -246.28,-24.04 -368.41,-159.79 -510.42,-258.24l58.85 -338.5 -248.21 123.76c96.68,-537.63 -441.72,-694.87 -683.42,-423.95 -117.89,132.1 -142.16,336.99 -29.52,518.94 100.11,161.77 258.63,170.38 489.31,143.3l-66.68 226.1 277.54 -63.03c118.52,111.22 202.73,212.36 274.56,376.42 87.23,199.08 15.54,239.38 140.05,421.87 127.1,186.28 -83.21,310.31 -204.84,430.16 -56.49,55.63 -102.64,117.91 -162.9,168.33 -368.54,308.2 -1314.35,1043.82 -1862.67,1141.31 -80.53,-97.34 -203.17,-383.62 -260.31,-525.27 -153.49,-380.48 92.77,-279.22 -277.88,-514.96l-3.52 -633.16 -157.13 -41.14c-8.76,-98.88 11.48,-199.39 -19.48,-287.09 -68.8,-194.9 -140.15,-108.49 -249.32,-696.34 -184.48,-993.23 -279.24,-2653.76 -216.11,-3620.87 67.2,-43.62 146.07,-45.63 234.72,-57.8 85.29,-11.75 154.57,-36.47 246.21,-60.57 380.82,-100.05 449.92,-314.26 48.28,-447.81 -191.43,-63.63 -274.98,-250.4 -279.43,-427.86 -0.31,-11.77 1.26,-97.04 2.31,-105.62 18.83,-152.16 125.51,-86.63 104.13,-244.6 -10.54,-77.7 -60.24,-88.31 -99.88,-160.26 19.04,-248.78 340.61,-760.74 443.02,-1012.05 -4.82,-138.06 29.39,-25.72 -60.39,-99.51 -102.67,-84.42 -257.66,-220.56 -401.79,-192.16 -75.86,14.97 -129.05,30.85 -168.3,75.51 80.72,316.21 67.29,566.86 -151.7,751.73 -202.46,170.9 -526.36,204.12 -758.15,27.89 -444.67,-338.08 -319.65,-1096.17 434.73,-1106.22 177.82,-29.92 -26.6,-73.31 165.86,-121.38 51.2,-12.81 586.38,-55.87 620.24,-211.11 -53.41,-59.48 -118.28,-89.75 -208.24,-135.77 -210.35,-107.59 34.03,-68.25 -191.5,-195.47 96.83,-217.33 147.37,-149.54 21.87,-399.16 -28.64,-56.96 -30.54,-91.29 -45.15,-166.05 -122.86,-43.01 -134.54,55.45 -128.66,-275.22 283.17,-43.98 388.8,91.23 399.46,-177.8 5.45,-137.69 17.86,-502.85 -31.02,-595.71l-352.33 -16.69c-56.27,-194.92 -6.21,-225.1 32.29,-357.57 -107.32,-69.57 -112.92,-8.76 -185.78,-139.83 -47.76,-85.96 -72.07,-164.37 -192.16,-170.09 -109.77,-5.21 -147.31,68.07 -190.94,141.89 -99.82,168.85 -59.01,70.33 -183.1,167.19 9.94,138.46 63.55,116.14 38.25,355.79l-296.91 12.35c-140.56,27.23 -95.71,152.64 -95.47,371.36 0.11,117.98 -19.13,271.47 16.23,380.52 108.7,51.78 244.05,10.42 374.86,32.57l10.51 224.29c-114.81,83.06 -77.8,-32.53 -143.06,89.75 -27.26,51.08 -28.83,101.44 -73.58,181.7 -103.61,185.9 -7.75,214.15 54.36,340.71 -128.09,84.73 -36.9,-29.49 -103.15,98.6 -44.83,86.66 21.41,51.06 -113.28,112.35 -147.91,67.29 -170.63,85.21 -254.99,196.95 -210.2,5.63 -304.77,-48.32 -469.25,65.56 -13.34,252.49 249.48,808.81 352.36,1013.5 76.92,153.12 147.1,289.83 224.27,439.49 194.17,376.69 7.29,233.87 -19.34,496.08 87.07,172.22 105.44,9.37 105.57,280.04 0.12,232.53 -8.29,144.94 -103.16,302.25 -97.2,161.13 -49.7,105.8 -234.71,172.34 -104.97,37.73 -181.95,87.85 -213.58,188.9 63.4,292.36 569.1,242.85 802.13,342.06 71.95,283.63 -34.4,2071.23 -67.51,2463.5 -33.52,397.47 -76.34,753.66 -134.41,1141.31 -23.82,159.15 -77.95,363.36 -131.11,507.08 -95.5,258.12 -156.31,112.73 -148.91,493.13 -5.03,3.86 -14.81,0.12 -17.52,7.5 -2.72,7.36 -13.92,5.75 -17.65,7.11 -124.3,44.85 -10.3,-35.12 -100.33,34.97z"/>
   <path class="fil0" d="M19370.97 20147.58c-21.29,-14.34 -5.39,-8.25 -53.34,-29.94 -30.15,-13.64 -44.13,-17.98 -77.2,-28.85l-2172.69 -654.87c-415.7,-125.6 -992.96,-61.14 -1452.51,-59.03 -391.15,1.77 -1175.98,-39.64 -1519.88,14.24l1470.61 757.97c195.98,31.45 3604.72,10.57 3805.01,0.48z"/>
   <path class="fil0" d="M7991.11 20166.01l3615.18 1.54c-56.57,-217.76 -308.87,-533.13 -367.78,-774.59l-2510.49 5.51c-188.27,4.27 -206.79,101.98 -407.05,338.65l-329.86 428.89z"/>
   <path class="fil0" d="M948.49 20167.4c930.73,15.87 1876.54,0.21 2809.02,0.21 640.65,0 485.27,28.95 1126.28,-273.48 83.8,-39.54 903.65,-401.21 971.55,-470.12l-2097.83 7.14c-316.49,1.17 -354.47,5.96 -627.68,84.3 -320.4,91.83 -2044.03,561.2 -2181.34,651.95z"/>
   <path class="fil0" d="M11283.87 19373.77l2660.8 -8.28c-28.44,-38.28 -427.89,-247.58 -501.57,-287.42 -314.86,-170.23 -271.28,-139.46 -683.91,-137.53 -526.77,2.47 -1155.34,39.28 -1669.26,5.34 39.85,148.24 132.92,303.29 193.94,427.89z"/>
   <path class="fil0" d="M10782.27 5814.07c-33.86,155.24 -569.04,198.3 -620.24,211.11 -192.46,48.07 11.96,91.46 -165.86,121.38 143.31,91.71 69.36,119.77 172.1,244.32 101.32,122.85 168.54,56.77 303.02,82.28 39.25,-44.66 92.44,-60.54 168.3,-75.51 144.13,-28.4 299.12,107.74 401.79,192.16 89.78,73.79 55.57,-38.55 60.39,99.51 141.53,-135.32 218.45,-0.03 274.5,-244.44 129.45,118.55 218.51,145.53 334.26,-21.78 39.18,-56.68 200.56,-304.41 209.02,-328.26 -59.87,-77.29 -94.97,-104.42 -231.37,-113.64 -96.89,63.49 -258.57,317.57 -288.51,408.74 -64.57,-82.85 0.51,-75.17 54.09,-273.42 34.19,-126.44 92.47,-193.72 82.11,-302.9 -59.37,-21.23 -144.6,-57.74 -225.77,-29.22 -160.93,56.6 34.63,73.44 -163.06,105.12l59.42 -145.26c-71.17,-38.19 -153,-82.83 -247.37,-47.23 -158.39,59.82 -0.39,173.79 -176.82,117.04z"/>
   <path class="fil0" d="M6087.64 19395.4c207.55,-1.36 2366.48,10.45 2455.91,-20.93l371.93 -412.45c-439.46,6.38 -1891.15,-27.68 -2060.27,47.05 -88.19,38.97 -172.15,80.68 -261.19,122.67 -91.91,43.34 -153.3,72.25 -244.32,112.64 -44.6,19.79 -82.67,35.9 -121.98,53.68l-140.08 97.34z"/>
   <path class="fil0" d="M12824.61 9523.37c-190.19,22.83 -204.68,153.22 -85.53,243.6l-35.84 21.2c-164.93,92.47 -160.08,102.13 -88.07,276.83 -241.73,3.22 -208.84,219.65 -65.57,293.44l445.04 149.93c85.98,-225.62 49.99,-267.54 -70,-318.38l-150.38 -69.03c183.09,15.02 357.21,139.86 399.61,2.95 75.78,-244.51 -118.76,-240.05 -257.76,-274.9 117.89,-6.62 261.02,52.01 336.07,29.22 46.8,-64.88 68.73,-172.82 2.35,-251.7 -51.89,-61.75 -183.6,-59.55 -279.35,-65.24 6.41,-3.76 16.42,-15.88 20.06,-9.85l172.34 -39.66c83.37,-5.55 136.82,2.49 220.55,-9.5 30,-123.75 -17.28,-208.53 -57.34,-276 -105.72,-9.61 -309.77,7.62 -419.88,21.62 -207.64,26.45 -160.23,155.54 -86.3,275.47z"/>
   <path class="fil0" d="M15323.29 18909.22c-371.12,-122.4 -713.06,-264.29 -1136.05,-260.94 -481.2,3.79 -962.98,6.26 -1444.01,8.1 24.16,34.54 375.89,231.67 436.94,253.02 135.83,47.5 2004.09,18.74 2143.12,-0.18z"/>
   <path class="fil0" d="M9006.23 18958.1l2009.97 -9.76 -98.91 -273.2c-351.51,-15.96 -737.48,1.71 -1090.66,3.1 -535.18,2.14 -497.83,-64.6 -687.82,116.41 -88.58,84.39 -88.19,60.48 -132.58,163.45z"/>
   <path class="fil0" d="M12335.82 18456.08l-1448.26 19.67 64.33 187.19 1689.72 -10.69c-74.66,-46.29 -228.3,-129.36 -295.55,-187.88l1442.14 -15.75c-338.02,-94.97 -313.5,-137.77 -748.51,-134.37 -298.68,2.32 -614.6,-4.9 -910.75,8.29l206.88 133.54z"/>
   <path class="fil0" d="M5320.27 18872.99l-13 114.87c635.62,-63.73 1389.16,75.06 1762.45,-94.87 131.38,-59.82 302.75,-119.78 410.06,-195.95 -250.55,-9.43 -1481.08,-19.73 -1706.07,47.67 -131.53,39.4 -323.62,105.18 -453.44,128.28z"/>
   <path class="fil0" d="M6629.6 18497.35l1296.99 -0.06c-5.33,6.11 -13.88,6.11 -17.28,16.89l-159.24 91.05c-57.34,24.94 -106.38,53.98 -156.11,74.54 232.22,28.47 1110.81,-2.67 1468.41,-0.75 126.29,0.66 222.07,-7.76 306.16,-190.86l-1366.22 11.93c23.1,-24.37 15.88,-20.42 53.37,-44.33 23.16,-14.79 44.58,-24.7 72.38,-37.38 52.92,-24.16 66.74,-24.4 113.91,-55.51 -245.92,-28.98 -628.55,-3.7 -888.93,-1.26 -396.23,3.73 -440.66,89.81 -723.44,135.74z"/>
   <path class="fil0" d="M5472.8 16224.41c-179.36,-47.77 -252.94,-186.91 -405.25,-72.19 -54.97,175.62 35.84,234.93 155.32,283.47 200.45,81.45 236.89,134.37 319.68,144.49 104.69,-89.34 42.8,-66.17 90.99,-165.78 48.01,-99.27 83.19,-48.7 137.59,-146.86 99.92,-180.35 -71.09,-238.02 -169.36,-312.54 -7.87,-5.96 -228.18,-255.1 -328.66,-78.67 -43.1,75.69 -15.21,151.74 41.18,213.24 52.61,57.38 94.77,60.15 158.51,134.84z"/>
   <path class="fil0" d="M9442.32 18482.53l1381.18 -11.29c-25.69,-210.35 -159.42,-137.37 -690.86,-130.9 -136.71,1.65 -272.97,2.95 -409.65,2.56 -172.4,-0.45 -212.15,31.27 -280.67,139.63z"/>
   <path class="fil0" d="M5450.9 19365.7c16.72,-132.85 29.82,-272.81 -120.92,-300.79 -668.34,-124.03 -550.94,227.78 -348.48,269.1 61.62,12.56 393.89,30.37 469.4,31.69z"/>
   <path class="fil0" d="M6626.52 15421.69c62.02,162.04 16.03,96.92 143.73,189.08 15.69,-71.95 -14.46,-10.9 40.78,-60.5 24.42,-21.93 49.03,-25.48 78.67,-51.93 119.06,-106.29 -71.08,-522.49 -74.49,-526.74 -83.24,-103.82 -232.75,-42.86 -247.48,102.52 -16.23,160.44 116.59,280.37 58.79,347.57z"/>
   <path class="fil0" d="M6868.25 14810.82c70.73,124.12 -7.64,79.82 63.28,295.98 33.92,103.4 42.9,188.73 74.37,285.71 349.01,62.16 222.61,-278.27 241.82,-316.16 -61.35,-101.68 -60,-228.72 -142.97,-296.73 -180.9,-73.52 -78.37,39.94 -236.5,31.2z"/>
   <path class="fil0" d="M5237.45 18641.56c24.46,-116.41 47.29,-268.18 -109.96,-298.24 -648.97,-124.06 -575.54,223.24 -346.64,269.14 51.2,10.3 398.29,30.45 456.6,29.1z"/>
   <path class="fil0" d="M7252.24 15080.74c5.09,5.01 12.5,5.79 14.7,15.58l38.46 45.9c23.91,31.59 8.46,26.87 47.68,69.81l135.02 -6.69c99.3,-114.78 140.5,-79.15 73.85,-292.51 -28.16,-90.05 -45.42,-261.42 -119.81,-315.49 -105.87,-76.92 -291.4,10.96 -180.69,312.39 3.23,8.73 26.75,75.03 26.9,77.41 5.81,88.33 20.03,41.92 -36.11,93.6z"/>
   <path class="fil0" d="M6564.6 15332.39c-69.18,-148.4 -24.06,-189.03 -181.44,-244.24 -146.38,54.13 -171.19,134.49 -129.27,289.29 18.65,68.95 74.22,305.32 104.67,354.89 207.72,21.9 279.86,-85.11 221.1,-272.27 -9.91,-31.51 -16.57,-30.3 -22.14,-73.07 -6.83,-52.59 -9.43,-26.14 7.08,-54.6z"/>
   <path class="fil0" d="M13294.28 7961.78c-3.79,-158.13 -72.61,-283.78 -233.51,-242.28 -67.94,17.5 -345.79,102.34 -376.42,139 -117.76,140.84 32.77,257.55 218.42,217.46 57.92,-12.5 326.88,-91.78 391.51,-114.18z"/>
   <path class="fil0" d="M11866.66 12364.79c109.6,-79.12 171.86,-239.01 5.78,-334.7 -127.7,-73.61 -488.58,-311.73 -469.82,-21.24 10.09,155.83 374.02,320.07 464.04,355.94z"/>
   <path class="fil0" d="M5307.27 18987.86l13 -114.87 -31.28 -132.25c-89.37,-45.12 -407.18,-71.18 -535.97,-45.84 -104.24,107.73 -80.99,234.5 79.94,275.8 86.11,22.1 418.1,47.67 474.31,17.16z"/>
   <path class="fil0" d="M13139.09 7599.36c21.26,-146.05 -86.42,-269.93 -221.92,-226.82 -632.43,201.1 -396.63,461.2 -151.89,388.13 35.75,-10.69 316.91,-134.65 373.81,-161.31z"/>
   <path class="fil0" d="M12691.1 11124.54c66.11,-142.73 114.21,-255.17 -62.74,-333.72 -86.08,-38.22 -311.18,-151.95 -388.5,-121.74 -154.99,60.54 -69.61,241.28 54.79,302.06 81.65,39.88 328.95,146.83 396.45,153.4z"/>
   <path class="fil0" d="M4928.19 16521.35c-153.96,94.03 -24.03,244.69 108.55,280.35 72.26,19.43 360.52,100.74 387.89,85.24 85.75,-48.59 91.27,-267.61 -83.96,-314.32 -119.19,-31.78 -321.31,-106.93 -412.48,-51.27z"/>
   <path class="fil0" d="M4667.43 17636.59c-82.74,278.44 172.54,270.25 500.93,279.68l79.33 -8.1c191.89,-375.07 -464.28,-329.17 -580.26,-271.58z"/>
   <path class="fil0" d="M10846.66 13188.09c401.81,-14.7 113.22,-409.7 100.87,-435.73 -44.88,-94.66 -28.97,-136.5 -106.08,-177.64 -199.6,-106.41 -291.34,178.16 5.21,613.37z"/>
   <path class="fil0" d="M12109.2 12072.88c326.37,-338.83 -393.47,-485.84 -406.96,-481.8 -169.99,50.78 -83.94,237.33 45.97,308.83 83.66,46.05 311.24,170.17 360.99,172.97z"/>
   <path class="fil0" d="M12529.7 11468.85c112.73,-107.43 133.66,-253.53 -21.12,-330.58 -73.19,-36.41 -314.04,-161.04 -381.09,-145.93 -175.44,39.55 -88.67,237.46 42.8,306.43 99.18,52.05 295.97,165.09 359.41,170.08z"/>
   <path class="fil0" d="M5293.47 17544.54c24.67,-57.79 28.94,-119.75 6.78,-188.84 -57.71,-179.81 -546.33,-106.86 -580.36,-71.56 -97.4,100.93 13.61,232.43 139.72,250.83 87.43,12.8 378.05,31.71 433.86,9.57z"/>
   <path class="fil0" d="M13411.81 9143.66c27.29,-141.55 -3.95,-182.24 -62.98,-263.65 -170.5,-27.53 -624.63,-37.5 -554.24,185.92 30.06,95.29 143.03,114.14 264.2,104.87 99.45,-7.62 268.72,2.5 353.02,-27.14z"/>
   <path class="fil0" d="M4775.19 16947.11c-4.88,152.82 57.28,223.54 211.1,231.95 90.9,4.93 328.23,24.27 388.11,19.24 52.32,-130.96 19.46,-200.32 -35.3,-286.06 -189.14,-28.77 -435.64,-63.77 -563.91,34.87z"/>
   <path class="fil0" d="M7966.38 14817.18l-44.63 -59.18c-175.24,-288.18 -102.41,-405.46 -342.58,-348.42 -124.47,227.1 54.01,360.19 131.69,612.85 165.8,2.27 219.5,-69.6 255.52,-205.25z"/>
   <path class="fil0" d="M6052.07 15887.99c168.88,37.08 298.6,-116.83 193.03,-294.47 -83.28,-140.08 -158.27,-373.3 -345.55,-289.75 -175.02,139.96 113.72,395.01 152.52,584.22z"/>
   <path class="fil0" d="M12275.1 6375.34c-41.96,-154.97 -181.17,-219.96 -307.06,-129.18 -63.1,45.48 -76.41,91.29 -140.2,140.92 -48.37,37.65 -129.21,61.59 -145.18,145.8 -23.94,126.17 108.86,237.25 290.14,102.26 33.7,-25.09 276.07,-228.06 302.3,-259.8z"/>
   <path class="fil0" d="M5241.61 18258.57c39.97,-150.35 4.3,-267.36 -157.68,-280.14 -112,-8.79 -354.7,-35.2 -414.28,19.49 -113.64,104.27 -11.05,238.93 134.24,258.48 74.93,10.06 152.1,2.11 229.27,8.65 27.79,2.34 95.65,14 112.04,14.21 68.34,0.84 42.1,8.86 96.41,-20.69z"/>
   <path class="fil0" d="M11586.16 12659.47c360.26,-227.33 -270.16,-549.27 -282.51,-550.23 -204.14,-15.84 -154.96,224.41 -32.74,318.62l209.72 172.59c85.36,73.27 -8.13,35.14 105.53,59.02z"/>
   <path class="fil0" d="M13371.93 8364.38c70.51,-454.65 -590.96,-158.49 -612.74,-124.73 -83.45,129.42 48.26,227.37 194.64,215.17 38.94,-3.26 400.9,-81.02 418.1,-90.44z"/>
   <path class="fil0" d="M12787.39 8702.46c185.65,144.17 205.35,76.14 624.42,7.77 59.61,-209.45 -88.22,-296.46 -273,-248.39 -214.56,55.84 -353.5,-3.62 -351.42,240.62z"/>
   <path class="fil0" d="M12835.7 10815.52c289.26,-377.24 -438.5,-436.36 -449.83,-431.99 -130.29,50.12 -87.61,223.03 53.95,291.18 74.33,35.82 348.98,136.9 395.88,140.81z"/>
   <path class="fil0" d="M12465.96 6655.83c-103,-376.75 -418.26,-4.22 -452.11,20.45 -52.13,37.95 -115.53,58.52 -136.11,143.7 -44.57,184.74 167.61,199.41 283.78,106.28l304.44 -270.43z"/>
   <path class="fil0" d="M8531.98 14640.08c32.41,-163.46 -12.68,-173.42 -75.99,-317.48 -40.08,-91.23 -49.72,-261.04 -204.8,-226.94 -207.73,45.62 -53.5,356 30.11,557.73 2.62,6.36 5.45,13.13 8.26,19.16 16.74,35.75 13.46,30.36 32.55,54.03 126.02,-12.44 134.33,-45.63 209.87,-86.5z"/>
   <path class="fil0" d="M8224.55 14774.59c32.41,-163.46 -12.68,-173.43 -75.99,-317.49 -40.09,-91.23 -49.73,-261.03 -204.81,-226.94 -207.73,45.63 -53.49,356 30.12,557.73 2.62,6.36 5.45,13.13 8.25,19.16 16.75,35.75 13.47,30.36 32.56,54.03 126.02,-12.44 134.33,-45.63 209.87,-86.49z"/>
   <path class="fil0" d="M6052.07 15887.99l-25.63 -24.49c-2.59,-2.53 -9.7,-9.3 -12.89,-12.44l-164.6 -169.26c-84.27,-103.25 -88.73,-158.67 -265.17,-133.58 -64.39,147.88 -39.27,213.93 54.49,318.72 50.54,56.47 159.18,201.04 235.8,262.57 125.02,-37.01 154.06,-110 178,-241.52z"/>
   <path class="fil0" d="M12962.32 7216.85c-108.49,-442.93 -594.76,109.73 -597.52,117.23 -69.34,186.58 161.64,216.45 295.18,116.37 51.3,-38.43 87.32,-80.42 140.18,-116.5 67.64,-46.17 100.14,-43.61 162.16,-117.1z"/>
   <path class="fil0" d="M12725.65 6961.84c-117.49,-449.02 -603.4,84.48 -604.19,86.5 -77.79,199.23 171.8,200.86 275.71,138.48 64.15,-38.52 88.88,-69.63 146.98,-108.61 69.3,-46.53 124,-52.31 181.5,-116.37z"/>
   <path class="fil0" d="M12327.05 11753.75c37.84,-82.53 69.7,-130.39 51.3,-262.27 -83.58,-59.58 -180.47,-88.23 -281.55,-145.33 -329.65,-186.22 -406.12,135.9 -94.3,275.02 103.78,46.32 218.84,138.51 324.55,132.58z"/>
   <path class="fil0" d="M11229.17 12927.29c328.11,-177.85 26.26,-350.58 -50.72,-456.9 -231.04,-319.23 -390.43,-34.13 -225.77,172.55 53.19,66.74 83.1,86.83 137.73,144.03 74.79,78.28 47.35,97.85 138.76,140.32z"/>
   <path class="fil0" d="M8708.47 14504.64c48.19,-34.52 51.15,54.12 34.94,-71.15l24.22 -587.94c-47.8,61.53 -29.64,25.24 -46.26,128.52 -63.46,-140.36 -176.98,-165.96 -258.12,-29.88 -53.55,124.48 151.53,524.24 157.88,528.31 67.23,43.25 -88.81,-1.56 32.35,9.73 52.41,4.88 31.53,-0.9 57.31,-15.55l-2.32 37.96z"/>
   <path class="fil0" d="M7966.38 14817.18l0 0z"/>
  </g>
  <path class="fil1" d="M5883.41 23701.47c23.72,0 42.42,10.94 56.1,32.84 13.69,21.89 20.53,52 20.53,90.31 0,71.16 -17.33,127.72 -52,169.69 -87.58,105.82 -176.07,187.47 -265.47,244.94 -89.4,57.48 -195.23,86.21 -317.47,86.21 -135.02,0 -245.41,-39.68 -331.16,-119.05 -85.75,-79.37 -166.03,-202.98 -240.84,-370.84 -54.74,-120.42 -99.9,-210.28 -135.47,-269.58 -35.58,-59.29 -70.71,-101.26 -105.37,-125.89 -34.67,-24.63 -78.46,-39.68 -131.37,-45.16l-30.11 202.53c-38.31,260.91 -112.66,448.84 -223.05,563.78 -110.38,114.95 -262.28,172.42 -455.68,172.42 -125.89,0 -237.65,-30.56 -335.26,-91.68 -97.61,-61.12 -165.58,-139.12 -203.89,-234 -12.78,-32.84 -19.16,-68.42 -19.16,-106.73 0,-54.74 12.77,-102.18 38.31,-142.32 25.55,-40.14 58.39,-60.21 98.53,-60.21 23.72,0 43.79,5.93 60.21,17.79 16.42,11.86 31.93,32.39 46.53,61.58 56.56,105.82 106.28,179.72 149.15,221.68 42.88,41.97 96.25,62.95 160.11,62.95 72.98,0 135.47,-33.3 187.47,-99.9 52,-66.59 88.95,-169.22 110.84,-307.89l38.32 -260 -43.79 0c-41.97,0 -74.81,-11.86 -98.53,-35.58 -23.72,-23.72 -35.58,-56.56 -35.58,-98.52 0,-47.44 12.32,-85.3 36.95,-113.58 24.63,-28.28 55.19,-42.42 91.68,-42.42l90.32 0c12.77,-89.41 21.89,-151.44 27.37,-186.11l84.84 -615.78c-47.44,-5.48 -92.14,-8.21 -134.1,-8.21 -155.09,0 -272.78,26.91 -353.06,80.73 -80.28,53.83 -120.42,130.91 -120.42,231.26 0,45.62 5.02,82.57 15.06,110.85 10.03,28.28 23.26,59.75 39.68,94.42 7.3,14.59 10.95,31.01 10.95,49.26 0,40.14 -18.7,75.26 -56.11,105.37 -37.4,30.1 -78.91,45.16 -124.52,45.16 -58.39,0 -101.27,-25.55 -128.63,-76.64 -54.74,-96.7 -82.11,-200.7 -82.11,-311.99 0,-114.95 31.47,-219.86 94.42,-314.74 62.95,-94.88 158.28,-171.05 286,-228.52 127.72,-57.48 285.54,-86.22 473.47,-86.22 82.11,0 157.37,4.57 225.79,13.69 68.42,9.12 143.68,26.46 225.79,52 89.4,27.37 134.1,78.45 134.1,153.26 0,100.35 -42.87,150.53 -128.63,150.53l-106.73 736.2c213.47,-21.89 387.26,-113.57 521.36,-275.05 134.11,-161.47 245.86,-380.87 335.26,-658.2 16.42,-51.09 44.25,-90.32 83.48,-117.69 39.23,-27.37 88.94,-41.05 149.15,-41.05 51.09,0 90.78,11.4 119.06,34.21 28.28,22.81 42.42,55.19 42.42,97.16 0,12.77 -3.65,33.75 -10.95,62.94 -91.23,301.06 -221.68,540.07 -391.37,717.05 -169.68,176.99 -354.87,294.67 -555.57,353.05 69.33,16.43 126.35,41.06 171.05,73.9 44.7,32.84 82.56,73.44 113.58,121.79 31.01,48.35 66.59,115.4 106.73,201.15 56.56,120.43 109.48,205.72 158.74,255.9 49.26,50.17 106.74,75.26 172.42,75.26 58.39,0 114.03,-19.61 166.95,-58.84 52.91,-39.23 119.5,-106.28 199.79,-201.16 21.89,-25.54 46.52,-38.31 73.89,-38.31zm213.47 -845.68c-76.63,0 -134.1,-17.79 -172.42,-53.37 -38.31,-35.58 -57.47,-85.3 -57.47,-149.16 0,-63.86 25.09,-117.23 75.26,-160.1 50.18,-42.88 112.67,-64.32 187.47,-64.32 67.51,0 122.25,16.42 164.21,49.26 41.97,32.85 62.95,79.37 62.95,139.58 0,72.98 -23.72,130.91 -71.16,173.79 -47.43,42.88 -110.38,64.32 -188.84,64.32zm-21.89 1469.67c-118.6,0 -204.81,-41.96 -258.63,-125.89 -53.83,-83.93 -80.74,-195.23 -80.74,-333.89 0,-82.11 10.49,-187.48 31.47,-316.11 20.99,-128.63 47.9,-248.59 80.74,-359.89 16.42,-58.39 38.32,-98.53 65.68,-120.42 27.37,-21.9 71.16,-32.84 131.37,-32.84 93.06,0 139.58,31.01 139.58,93.05 0,45.61 -17.33,151.44 -52,317.47 -43.79,200.7 -65.68,336.63 -65.68,407.79 0,54.74 7.3,96.7 21.89,125.89 14.6,29.2 39.23,43.79 73.9,43.79 32.84,0 73.89,-22.8 123.15,-68.42 49.27,-45.61 114.95,-117.68 197.06,-216.21 21.89,-25.54 46.52,-38.31 73.89,-38.31 23.72,0 42.42,10.94 56.11,32.84 13.68,21.89 20.52,52 20.52,90.31 0,72.99 -17.33,129.55 -52,169.69 -180.63,220.77 -349.4,331.15 -506.31,331.15zm1373.89 -623.99c23.72,0 42.42,10.94 56.1,32.84 13.69,21.89 20.53,52 20.53,90.31 0,72.99 -17.34,129.55 -52,169.69 -78.46,96.7 -163.76,176.07 -255.9,238.1 -92.14,62.04 -196.59,93.05 -313.36,93.05 -160.56,0 -279.62,-72.98 -357.16,-218.94 -77.54,-145.97 -116.31,-334.81 -116.31,-566.53 0,-222.59 28.73,-476.2 86.21,-760.83 57.47,-284.64 142.31,-529.13 254.52,-733.48 112.21,-204.35 245.86,-306.52 400.95,-306.52 87.58,0 156.45,40.6 206.63,121.79 50.17,81.19 75.26,197.51 75.26,348.94 0,217.13 -60.21,468.91 -180.63,755.37 -120.42,286.45 -283.72,570.17 -489.89,851.15 12.77,74.81 33.75,128.18 62.94,160.11 29.2,31.93 67.51,47.89 114.95,47.89 74.81,0 140.49,-21.44 197.05,-64.31 56.56,-42.88 128.63,-116.32 216.21,-220.32 21.9,-25.54 46.53,-38.31 73.9,-38.31zm-336.63 -1691.36c-41.97,0 -89.41,75.71 -142.32,227.15 -52.91,151.44 -99.44,339.37 -139.58,563.79 -40.14,224.42 -62.03,439.72 -65.68,645.89 129.54,-213.47 232.63,-427.4 309.26,-641.78 76.63,-214.39 114.95,-410.07 114.95,-587.06 0,-138.66 -25.55,-207.99 -76.63,-207.99zm550.1 845.68c-76.63,0 -134.1,-17.79 -172.42,-53.37 -38.31,-35.58 -57.47,-85.3 -57.47,-149.16 0,-63.86 25.09,-117.23 75.26,-160.1 50.18,-42.88 112.67,-64.32 187.47,-64.32 67.51,0 122.25,16.42 164.21,49.26 41.97,32.85 62.95,79.37 62.95,139.58 0,72.98 -23.72,130.91 -71.16,173.79 -47.43,42.88 -110.38,64.32 -188.84,64.32zm-21.89 1469.67c-118.6,0 -204.81,-41.96 -258.63,-125.89 -53.83,-83.93 -80.74,-195.23 -80.74,-333.89 0,-82.11 10.49,-187.48 31.47,-316.11 20.99,-128.63 47.9,-248.59 80.74,-359.89 16.42,-58.39 38.32,-98.53 65.68,-120.42 27.37,-21.9 71.16,-32.84 131.37,-32.84 93.06,0 139.58,31.01 139.58,93.05 0,45.61 -17.33,151.44 -52,317.47 -43.79,200.7 -65.68,336.63 -65.68,407.79 0,54.74 7.3,96.7 21.89,125.89 14.6,29.2 39.23,43.79 73.9,43.79 32.84,0 73.89,-22.8 123.15,-68.42 49.27,-45.61 114.95,-117.68 197.06,-216.21 21.89,-25.54 46.52,-38.31 73.89,-38.31 23.72,0 42.42,10.94 56.11,32.84 13.68,21.89 20.52,52 20.52,90.31 0,72.99 -17.33,129.55 -52,169.69 -180.63,220.77 -349.4,331.15 -506.31,331.15zm2214.09 -623.99c23.72,0 42.42,10.94 56.11,32.84 13.68,21.89 20.52,52 20.52,90.31 0,72.99 -17.33,129.55 -52,169.69 -74.8,91.23 -157.36,169.23 -247.68,234 -90.31,64.77 -181.09,97.15 -272.31,97.15 -118.6,0 -204.81,-41.96 -258.63,-125.89 -53.83,-83.93 -80.74,-195.23 -80.74,-333.89 0,-71.16 7.75,-158.74 23.26,-262.74 15.51,-104 36.04,-206.17 61.58,-306.52 -182.45,0 -398.66,8.21 -648.63,24.63 -40.14,255.43 -60.21,493.54 -60.21,714.31 0,169.68 9.58,347.12 28.74,532.31 19.16,185.2 47.89,277.79 86.21,277.79 18.25,0 37.4,-31.93 57.47,-95.79 20.07,-63.86 36.49,-151.44 49.27,-262.73 12.77,-111.3 19.15,-234.46 19.15,-369.47 0,-147.79 -8.21,-307.44 -24.63,-478.95 -3.65,-51.09 5.02,-88.95 26,-113.58 20.98,-24.63 52.46,-36.95 94.42,-36.95 38.32,0 66.6,10.04 84.84,30.11 18.25,20.07 29.2,53.82 32.85,101.26 9.12,133.19 13.68,291.93 13.68,476.21 0,297.4 -36.03,551.93 -108.1,763.58 -72.07,211.64 -183.83,317.47 -335.27,317.47 -129.54,0 -222.59,-93.51 -279.15,-280.53 -56.56,-187.01 -84.84,-467.54 -84.84,-841.57 0,-220.77 17.33,-457.05 52,-708.84 -12.78,1.82 -29.2,2.74 -49.27,2.74 -56.56,0 -94.42,-10.04 -113.58,-30.11 -19.15,-20.07 -28.73,-51.09 -28.73,-93.05 0,-45.62 12.31,-82.11 36.94,-109.47 24.64,-27.37 71.62,-43.79 140.95,-49.27 12.77,-1.82 32.84,-2.73 60.21,-2.73 49.26,-246.32 112.21,-469.83 188.84,-670.53 76.63,-200.7 164.21,-359.89 262.74,-477.57 98.52,-117.69 202.52,-176.53 312,-176.53 85.75,0 151.89,33.3 198.42,99.89 46.52,66.6 69.79,151.9 69.79,255.9 0,366.73 -147.79,678.73 -443.37,935.99 222.6,-9.12 402.31,-13.68 539.16,-13.68 51.08,0 93.05,9.58 125.89,28.74 32.84,19.15 49.26,56.1 49.26,110.84 0,36.49 -5.93,92.14 -17.79,166.94 -11.86,74.81 -25.08,149.62 -39.68,224.42 -32.84,155.09 -49.26,257.27 -49.26,306.53 0,54.74 7.29,96.7 21.89,125.89 14.6,29.2 39.23,43.79 73.9,43.79 31.01,0 70.7,-21.44 119.05,-64.31 48.35,-42.88 119.96,-116.32 214.84,-220.32 21.89,-25.54 46.52,-38.31 73.89,-38.31zm-987.99 -1699.57c-43.79,0 -99.44,94.87 -166.95,284.63 -67.51,189.75 -128.63,419.64 -183.37,689.68 91.23,-63.86 167.41,-143.23 228.53,-238.11 61.12,-94.87 106.74,-192.94 136.84,-294.21 30.11,-101.26 45.16,-194.77 45.16,-280.52 0,-107.65 -20.07,-161.47 -60.21,-161.47zm530.94 853.89c-76.63,0 -134.1,-17.79 -172.42,-53.37 -38.31,-35.58 -57.47,-85.3 -57.47,-149.16 0,-63.86 25.09,-117.23 75.26,-160.1 50.18,-42.88 112.67,-64.32 187.47,-64.32 67.51,0 122.25,16.42 164.21,49.26 41.97,32.85 62.95,79.37 62.95,139.58 0,72.98 -23.72,130.91 -71.16,173.79 -47.43,42.88 -110.38,64.32 -188.84,64.32zm2145.67 1469.67c-217.12,0 -405.96,-39.68 -566.52,-119.05 -160.56,-79.37 -283.72,-192.03 -369.47,-338 -85.76,-145.96 -128.63,-315.64 -128.63,-509.05 0,-268.21 50.63,-506.31 151.89,-714.31 101.26,-208 238.56,-369.02 411.89,-483.05 173.34,-114.03 365.83,-171.05 577.48,-171.05 197.05,0 346.66,50.63 448.84,151.89 102.17,101.26 153.26,234.91 153.26,400.95 0,111.3 -19.62,200.7 -58.84,268.21 -39.23,67.51 -95.34,101.26 -168.32,101.26 -51.09,0 -91.23,-11.86 -120.42,-35.58 -29.19,-23.72 -43.79,-58.38 -43.79,-104 0,-16.42 3.65,-46.52 10.95,-90.31 10.95,-54.74 16.42,-98.53 16.42,-131.37 0,-166.04 -88.49,-249.05 -265.47,-249.05 -120.42,0 -235.37,39.22 -344.84,117.68 -109.48,78.46 -197.97,193.86 -265.48,346.21 -67.5,152.35 -101.26,333.44 -101.26,543.26 0,218.95 61.12,388.17 183.37,507.68 122.24,119.51 302.87,179.26 541.89,179.26 118.6,0 238.56,-15.05 359.89,-45.15 121.34,-30.11 255.9,-76.18 403.69,-138.21 27.37,-10.95 50.17,-16.42 68.42,-16.42 29.19,0 51.08,10.94 65.68,32.84 14.6,21.89 21.9,50.17 21.9,84.84 0,111.3 -60.21,193.4 -180.63,246.31 -129.55,56.57 -264.11,98.07 -403.69,124.53 -139.58,26.46 -272.31,39.68 -398.21,39.68zm2288 -623.99c23.72,0 42.42,10.94 56.1,32.84 13.69,21.89 20.53,52 20.53,90.31 0,72.99 -17.33,129.55 -52,169.69 -83.93,96.7 -170.14,176.07 -258.63,238.1 -88.49,62.04 -189.3,93.05 -302.42,93.05 -93.05,0 -163.3,-26.91 -210.74,-80.73 -47.43,-53.83 -71.15,-131.83 -71.15,-234 0,-51.09 12.77,-142.32 38.31,-273.68 23.72,-114.95 35.58,-194.32 35.58,-238.11 0,-29.19 -10.03,-43.79 -30.1,-43.79 -23.72,0 -57.48,30.56 -101.27,91.69 -43.79,61.12 -87.58,141.86 -131.36,242.21 -43.79,100.35 -79.37,206.17 -106.74,317.47 -34.67,145.96 -120.42,218.94 -257.26,218.94 -54.74,0 -90.77,-19.61 -108.11,-58.84 -17.33,-39.23 -26,-109.93 -26,-212.1 0,-58.39 0.91,-104.91 2.74,-139.58l2.74 -218.95c0,-280.98 28.73,-573.82 86.21,-878.52 57.47,-304.7 142.31,-560.59 254.52,-767.68 112.21,-207.09 246.77,-310.63 403.68,-310.63 83.93,0 151.9,36.03 203.9,108.1 52,72.07 78,165.58 78,280.53 0,184.28 -53.83,375.4 -161.48,573.37 -107.64,197.96 -282.8,429.22 -525.47,693.78 -5.47,94.88 -8.21,192.49 -8.21,292.84 60.21,-155.08 127.26,-281.43 201.16,-379.05 73.89,-97.61 146.88,-167.4 218.95,-209.37 72.07,-41.96 138.21,-62.94 198.42,-62.94 118.59,0 177.89,59.3 177.89,177.89 0,71.16 -20.07,199.79 -60.21,385.89 -34.67,158.74 -52,263.65 -52,314.74 0,72.98 26.46,109.47 79.37,109.47 36.49,0 79.82,-22.35 130,-67.05 50.17,-44.7 117.22,-117.23 201.15,-217.58 21.9,-25.54 46.53,-38.31 73.9,-38.31zm-812.84 -1691.36c-32.84,0 -69.33,46.98 -109.47,140.94 -40.14,93.97 -78.92,220.77 -116.32,380.42 -37.4,159.65 -67.96,333.44 -91.68,521.37 113.12,-133.19 206.63,-278.25 280.52,-435.16 73.9,-156.91 110.84,-299.22 110.84,-426.94 0,-58.39 -6.38,-103.09 -19.15,-134.11 -12.78,-31.02 -31.02,-46.52 -54.74,-46.52zm1888.41 1691.36c23.72,0 42.42,10.94 56.11,32.84 13.68,21.89 20.53,52 20.53,90.31 0,72.99 -17.34,129.55 -52,169.69 -67.51,82.1 -162.85,157.82 -286,227.15 -123.16,69.34 -254.98,104 -395.48,104 -191.57,0 -340.27,-52 -446.1,-156 -105.82,-103.99 -158.73,-246.31 -158.73,-426.94 0,-125.89 26.45,-243.12 79.36,-351.68 52.92,-108.56 126.35,-194.77 220.32,-258.63 93.96,-63.86 200.24,-95.79 318.84,-95.79 105.82,0 190.66,31.47 254.52,94.42 63.86,62.94 95.79,148.24 95.79,255.89 0,125.9 -45.15,234 -135.47,324.32 -90.32,90.31 -243.12,161.92 -458.42,214.84 45.61,83.93 132.28,125.89 260,125.89 82.1,0 175.61,-28.74 280.53,-86.21 104.91,-57.47 195.68,-132.74 272.31,-225.79 21.89,-25.54 46.53,-38.31 73.89,-38.31zm-689.68 -396.84c-67.51,0 -124.52,39.22 -171.05,117.68 -46.53,78.46 -69.79,173.33 -69.79,284.63l0 5.47c107.65,-25.54 192.49,-63.86 254.53,-114.94 62.03,-51.09 93.05,-110.39 93.05,-177.9 0,-34.66 -9.58,-62.49 -28.74,-83.47 -19.16,-20.98 -45.16,-31.47 -78,-31.47zm1053.68 1081.04c-94.88,0 -167.4,-21.89 -217.58,-65.68 -50.17,-43.79 -75.26,-93.05 -75.26,-147.79 0,-47.44 17.33,-88.49 52,-123.16 34.66,-34.66 85.75,-52 153.26,-52 23.72,0 51.54,2.29 83.47,6.85 31.93,4.56 56.11,7.75 72.53,9.58 -1.83,-47.44 -12.32,-92.14 -31.47,-134.11 -19.16,-41.96 -43.34,-82.56 -72.53,-121.79 -29.19,-39.23 -56.56,-73.44 -82.11,-102.63 -56.56,107.65 -112.66,197.05 -168.31,268.21 -55.65,71.16 -116.32,138.67 -182,202.53 -32.84,32.84 -67.51,49.26 -104,49.26 -29.19,0 -52.91,-10.49 -71.16,-31.48 -18.24,-20.98 -27.37,-46.98 -27.37,-77.99 0,-36.5 12.78,-70.25 38.32,-101.27l35.58 -43.79c100.35,-124.07 176.07,-226.24 227.16,-306.52 31.01,-52.91 67.5,-123.62 109.47,-212.11 41.96,-88.49 83.02,-180.17 123.16,-275.05 34.66,-80.28 106.73,-120.42 216.21,-120.42 51.08,0 86.66,4.56 106.73,13.69 20.07,9.12 30.11,23.72 30.11,43.79 0,10.94 -3.65,28.28 -10.95,52 -7.3,23.71 -17.33,47.43 -30.1,71.15 -32.85,65.69 -49.27,121.34 -49.27,166.95 0,27.37 9.58,57.47 28.74,90.31 19.16,32.85 48.81,73.9 88.95,123.16 58.38,76.63 102.63,141.86 132.73,195.69 30.11,53.82 45.16,112.66 45.16,176.52 0,18.25 -1.82,43.79 -5.47,76.63 89.4,-34.66 194.31,-126.8 314.73,-276.42 21.9,-25.54 46.53,-38.31 73.9,-38.31 23.72,0 42.42,10.94 56.1,32.84 13.69,21.89 20.53,52 20.53,90.31 0,69.34 -17.34,125.9 -52,169.69 -91.23,113.12 -178.35,190.21 -261.37,231.26 -83.02,41.05 -185.65,63.4 -307.89,67.05 -72.99,62.04 -159.65,93.05 -260,93.05zm1168.63 0c-94.88,0 -167.4,-21.89 -217.58,-65.68 -50.17,-43.79 -75.26,-93.05 -75.26,-147.79 0,-47.44 17.33,-88.49 52,-123.16 34.66,-34.66 85.75,-52 153.26,-52 23.72,0 51.54,2.29 83.47,6.85 31.93,4.56 56.11,7.75 72.53,9.58 -1.83,-47.44 -12.32,-92.14 -31.47,-134.11 -19.16,-41.96 -43.34,-82.56 -72.53,-121.79 -29.19,-39.23 -56.56,-73.44 -82.11,-102.63 -56.56,107.65 -112.66,197.05 -168.31,268.21 -55.65,71.16 -116.32,138.67 -182,202.53 -32.84,32.84 -67.51,49.26 -104,49.26 -29.19,0 -52.91,-10.49 -71.16,-31.48 -18.24,-20.98 -27.37,-46.98 -27.37,-77.99 0,-36.5 12.78,-70.25 38.32,-101.27l35.58 -43.79c100.35,-124.07 176.07,-226.24 227.16,-306.52 31.01,-52.91 67.5,-123.62 109.47,-212.11 41.96,-88.49 83.02,-180.17 123.16,-275.05 34.66,-80.28 106.73,-120.42 216.21,-120.42 51.08,0 86.66,4.56 106.73,13.69 20.07,9.12 30.11,23.72 30.11,43.79 0,10.94 -3.65,28.28 -10.95,52 -7.3,23.71 -17.33,47.43 -30.1,71.15 -32.85,65.69 -49.27,121.34 -49.27,166.95 0,27.37 9.58,57.47 28.74,90.31 19.16,32.85 48.81,73.9 88.95,123.16 58.38,76.63 102.63,141.86 132.73,195.69 30.11,53.82 45.16,112.66 45.16,176.52 0,18.25 -1.82,43.79 -5.47,76.63 89.4,-34.66 194.31,-126.8 314.73,-276.42 21.9,-25.54 46.53,-38.31 73.9,-38.31 23.72,0 42.42,10.94 56.1,32.84 13.69,21.89 20.53,52 20.53,90.31 0,69.34 -17.34,125.9 -52,169.69 -91.23,113.12 -178.35,190.21 -261.37,231.26 -83.02,41.05 -185.65,63.4 -307.89,67.05 -72.99,62.04 -159.65,93.05 -260,93.05z"/>
 </g>
</svg>
