<?xml version="1.0" encoding="UTF-8"?>
<!DOCTYPE svg PUBLIC "-//W3C//DTD SVG 1.1//EN" "http://www.w3.org/Graphics/SVG/1.1/DTD/svg11.dtd">
<!-- Creator: CorelDRAW 2019 (64-Bit Evaluation Version) -->
<svg xmlns="http://www.w3.org/2000/svg" xml:space="preserve" width="100mm" height="100mm" version="1.1" style="shape-rendering:geometricPrecision; text-rendering:geometricPrecision; image-rendering:optimizeQuality; fill-rule:evenodd; clip-rule:evenodd"
viewBox="0 0 10000 10000"
 xmlns:xlink="http://www.w3.org/1999/xlink"
 xmlns:xodm="http://www.corel.com/coreldraw/odm/2003">
 <defs>
  <style type="text/css">
   <![CDATA[
    .str1 {stroke:black;stroke-width:176.39;stroke-miterlimit:22.9256}
    .str0 {stroke:white;stroke-width:176.39;stroke-miterlimit:22.9256}
    .fil0 {fill:black}
    .fil1 {fill:white}
   ]]>
  </style>
 </defs>
 <g id="Layer_x0020_1">
  <metadata id="CorelCorpID_0Corel-Layer"/>
  <path class="fil0 str0" d="M3144.61 6454.35c-2027.81,-1100.19 -403.64,-3105.28 1612.4,-4917.83l0 -6.82 3.78 3.41 3.77 -3.41 0 6.82c2016.04,1812.55 3640.21,3817.64 1612.4,4917.83l469.8 1166.38c-684.06,420.12 -1078.05,550.11 -2082.2,550.76l0 0.02 -3.77 -0.01 -3.78 0.01 0 -0.02c-1004.15,-0.65 -1398.14,-130.64 -2082.2,-550.76l469.8 -1166.38z"/>
  <path class="fil0 str0" d="M3144.61 6454.35c-2815.49,-1527.55 1579.99,-3832.17 1579.99,-4049.88 2016.04,1812.56 3680.17,2949.69 1652.36,4049.88l469.8 1166.38c-684.06,420.12 -1078.05,550.11 -2082.2,550.76l0 0.02 -3.77 -0.01 -3.78 0.01 0 -0.02c-1004.15,-0.65 -1398.14,-130.64 -2082.2,-550.76l469.8 -1166.38z"/>
  <path class="fil1 str1" d="M4764.56 3495.24c65.46,0 124.89,26.7 167.89,69.71 43.01,43 69.71,102.43 69.71,167.88l0 507.58 507.58 0c65.46,0 124.88,26.71 167.89,69.71 43,43 69.7,102.43 69.7,167.88 0,65.46 -26.7,124.89 -69.7,167.9 -43.01,43 -102.43,69.7 -167.89,69.7l-507.58 0 0 507.59c0,65.45 -26.7,124.88 -69.71,167.89 -43,43 -102.43,69.7 -167.88,69.7 -65.46,0 -124.89,-26.7 -167.89,-69.7 -43,-43.01 -69.71,-102.44 -69.71,-167.89l0 -507.59 -507.59 0c-65.45,0 -124.88,-26.7 -167.88,-69.7 -43.01,-43.01 -69.71,-102.44 -69.71,-167.89 0,-65.46 26.7,-124.89 69.71,-167.89 43,-43 102.43,-69.71 167.88,-69.71l507.59 0 0 -507.58c0,-65.45 26.71,-124.88 69.71,-167.88 43,-43.01 102.43,-69.71 167.88,-69.71z"/>
  <ellipse class="fil0 str0" cx="4748.37" cy="1027.2" rx="614.42" ry="534.28"/>
  <path class="fil0 str0" d="M7568.05 9166.73l0 -50.3c-985.67,-731.53 -1440.69,-344.6 -2144.09,-487.67 -210.91,-45.9 -691.23,-297.49 -393.97,-462.2 -538.06,-12.01 -512.31,1.97 -536.41,138.1 -462.54,622.73 -1296.92,131.45 -2172.15,495.82 -184.74,76.91 -436.04,226.38 -524.34,344.02 49.25,96.3 306.3,329.91 406.11,397.81 79.07,-15.79 182.1,-103.63 253.86,-145.49 642.78,-374.91 1317.35,-118.15 1989.2,-395.75 372.64,-153.97 67.31,-179.19 511.47,8.85 711.02,301.04 1453.61,-55.07 2213.96,550.3l396.36 -393.49z"/>
 </g>
</svg>
