<?xml version="1.0" encoding="UTF-8"?>
<!DOCTYPE svg PUBLIC "-//W3C//DTD SVG 1.1//EN" "http://www.w3.org/Graphics/SVG/1.1/DTD/svg11.dtd">
<!-- Creator: CorelDRAW 2019 (64-Bit Evaluation Version) -->
<svg xmlns="http://www.w3.org/2000/svg" xml:space="preserve" width="100mm" height="100mm" version="1.1" style="shape-rendering:geometricPrecision; text-rendering:geometricPrecision; image-rendering:optimizeQuality; fill-rule:evenodd; clip-rule:evenodd"
viewBox="0 0 10000 10000"
 xmlns:xlink="http://www.w3.org/1999/xlink"
 xmlns:xodm="http://www.corel.com/coreldraw/odm/2003">
 <defs>
  <style type="text/css">
   <![CDATA[
    .str0 {stroke:black;stroke-width:141.11;stroke-miterlimit:22.9256}
    .fil0 {fill:white}
   ]]>
  </style>
 </defs>
 <g id="Layer_x0020_1">
  <metadata id="CorelCorpID_0Corel-Layer"/>
  <g id="_2245254058976">
   <path class="fil0 str0" d="M2659.24 8315.17c572.96,234.08 1406.02,252.07 2015.45,298.13 905.34,0.92 1803.35,6.94 2726.95,-320.78 -701.08,-311.81 -1538.47,-497.66 -2437.17,-491.63 -542.09,3.65 -2134.37,244.93 -2305.23,514.28z"/>
   <path class="fil0 str0" d="M2763.9 8697.79c-220.17,-53.51 -343.97,166.09 18.86,281.36 1514.67,481.29 2998.68,505.36 4515.66,-9.17 318.34,-108.02 218.63,-341.61 -39.94,-263.17 -1670.71,452.21 -2707.64,357.47 -4494.58,-9.02z"/>
   <path class="fil0 str0" d="M4715.82 1943.7l-622.21 243.48 0 -1001.75 633.34 230.71 -186.64 -748.22 931.34 -8.34 -232.37 711.05 520.52 -160.11 0 886.4 -567.36 -156.19 135.08 694.05 -779.48 0 167.78 -691.08z"/>
   <path class="fil0 str0" d="M3268.58 4818.12c407.46,233.84 2428.33,1994.68 2472.85,2427.82 -1313.12,-18.84 -1950.26,103.17 -3128.28,756.41 -732.67,-836.48 -2902.46,-5225.77 655.43,-3184.23z"/>
   <path class="fil0 str0" d="M6723.82 4818.12c-407.46,233.84 -2428.33,1994.68 -2472.85,2427.82 1313.12,-18.84 1950.26,103.17 3128.28,756.41 732.67,-836.48 2902.46,-5225.77 -655.43,-3184.23z"/>
   <path class="fil0 str0" d="M4955.67 9019.46c519.38,-1235.27 2288.49,-6265.61 44.15,-6349.58 -1333.09,-49.98 -1300.42,1809.23 -1071.23,2992.01 223.67,1154.1 607.76,2256.56 1027.08,3357.57z"/>
  </g>
 </g>
</svg>
