<?xml version="1.0" encoding="UTF-8"?>
<!DOCTYPE svg PUBLIC "-//W3C//DTD SVG 1.1//EN" "http://www.w3.org/Graphics/SVG/1.1/DTD/svg11.dtd">
<!-- Creator: CorelDRAW 2019 (64-Bit Evaluation Version) -->
<svg xmlns="http://www.w3.org/2000/svg" xml:space="preserve" width="100mm" height="100mm" version="1.1" style="shape-rendering:geometricPrecision; text-rendering:geometricPrecision; image-rendering:optimizeQuality; fill-rule:evenodd; clip-rule:evenodd"
viewBox="0 0 10000 10000"
 xmlns:xlink="http://www.w3.org/1999/xlink"
 xmlns:xodm="http://www.corel.com/coreldraw/odm/2003">
 <defs>
  <style type="text/css">
   <![CDATA[
    .str0 {stroke:white;stroke-width:141.11;stroke-miterlimit:22.9256}
    .str1 {stroke:#2A292A;stroke-width:7.62;stroke-miterlimit:22.9256}
    .fil1 {fill:#FEFEFE}
    .fil0 {fill:#000}
   ]]>
  </style>
 </defs>
 <g id="Layer_x0020_1">
  <metadata id="CorelCorpID_0Corel-Layer"/>
  <path class="fil0 str0" d="M2779.44 7488.87c-875.98,172.68 -861.95,599.6 -866.3,1118.12l5909.83 11.35c25.15,-1218.7 -200.75,-723.18 -843.48,-1129.47 1152.15,-1483.52 -2001.33,-2481.74 -908.5,-3035.91 372.12,325.04 485.12,557.98 1110.32,783.61l355.67 464c203.21,265.14 1051.8,-659.05 883.79,-973.15l-679.41 -1547.19c-264.78,-368.9 -440.69,-703.72 -473.15,-1191.17 -10.27,-154.61 390.69,-695.06 410.96,-886.35l-693.41 567.63 202.72 -993.24 -633.85 959.65c-432.16,-281.9 -902.89,-422.52 -1367.38,-476.91 -690.04,-80.85 -1366.45,28.56 -1882.06,147.39 339.7,227.16 504.76,140.84 705.46,562.92 -952.8,-423.69 -1001.76,58.24 -1496.34,245.49 175.14,229.94 791.19,-163.03 781.15,278.59l-811.6 728.02 361.81 137.48c-1333.48,1332.5 -299.08,717.79 -58.6,1029.61 1285.55,1666.82 -921.77,2323.05 -7.63,3199.53z"/>
  <path class="fil1 str1" d="M7084.29 3137.78c112.45,-130.36 345.29,93.25 496.39,394.98 -295.5,-54.2 -608.84,-264.61 -496.39,-394.98z"/>
 </g>
</svg>
