<?xml version="1.0" encoding="UTF-8"?>
<!DOCTYPE svg PUBLIC "-//W3C//DTD SVG 1.1//EN" "http://www.w3.org/Graphics/SVG/1.1/DTD/svg11.dtd">
<!-- Creator: CorelDRAW 2019 (64-Bit Evaluation Version) -->
<svg xmlns="http://www.w3.org/2000/svg" xml:space="preserve" width="100mm" height="100mm" version="1.1" style="shape-rendering:geometricPrecision; text-rendering:geometricPrecision; image-rendering:optimizeQuality; fill-rule:evenodd; clip-rule:evenodd"
viewBox="0 0 10000 10000"
 xmlns:xlink="http://www.w3.org/1999/xlink"
 xmlns:xodm="http://www.corel.com/coreldraw/odm/2003">
 <defs>
  <style type="text/css">
   <![CDATA[
    .str0 {stroke:white;stroke-width:141.11;stroke-miterlimit:22.9256}
    .fil0 {fill:black}
   ]]>
  </style>
 </defs>
 <g id="Layer_x0020_1">
  <metadata id="CorelCorpID_0Corel-Layer"/>
  <path class="fil0 str0" d="M4478.75 1487.37l0 125.68c-238.06,93.42 -399.66,253.24 -399.66,523.5 0,338.39 87.31,651.98 399.66,1042.63l0 327.25c-214.14,213.96 -748.08,424.1 -810.18,690.58 -195.05,836.87 573.68,943.55 315.38,1257.51 -563.84,685.29 -1102.06,311.39 -1551.41,1396.57 -43.05,103.92 -137.45,983.56 -176.6,1112 -90.3,296.25 288.3,558.05 640.49,558.05 1399.83,0 2799.71,0 4199.55,0 352.19,0 730.78,-261.8 640.48,-558.05 -39.15,-128.44 -133.54,-1008.08 -176.6,-1112 -449.35,-1085.18 -987.57,-711.28 -1551.41,-1396.57 -258.3,-313.96 510.44,-420.64 315.39,-1257.51 -62.1,-266.48 -596.05,-476.62 -810.19,-690.58l0 -327.25c312.36,-390.65 399.67,-704.24 399.67,-1042.63 0,-270.26 -161.61,-430.08 -399.67,-523.5l0 -125.68c-343.72,-1.2 -691.13,-1.2 -1034.9,0z"/>
 </g>
</svg>
