<?xml version="1.0" encoding="UTF-8"?>
<!DOCTYPE svg PUBLIC "-//W3C//DTD SVG 1.1//EN" "http://www.w3.org/Graphics/SVG/1.1/DTD/svg11.dtd">
<!-- Creator: CorelDRAW 2019 (64-Bit Evaluation Version) -->
<svg xmlns="http://www.w3.org/2000/svg" xml:space="preserve" width="100mm" height="100mm" version="1.1" style="shape-rendering:geometricPrecision; text-rendering:geometricPrecision; image-rendering:optimizeQuality; fill-rule:evenodd; clip-rule:evenodd"
viewBox="0 0 10000 10000"
 xmlns:xlink="http://www.w3.org/1999/xlink"
 xmlns:xodm="http://www.corel.com/coreldraw/odm/2003">
 <defs>
  <style type="text/css">
   <![CDATA[
    .str0 {stroke:black;stroke-width:141.11;stroke-miterlimit:22.9256}
    .fil1 {fill:none}
    .fil0 {fill:white}
   ]]>
  </style>
 </defs>
 <g id="Layer_x0020_1">
  <metadata id="CorelCorpID_0Corel-Layer"/>
  <g id="_2245252097760">
   <path class="fil0 str0" d="M2636.89 5124.31l-1460.47 -965.29 1181.32 1852.07c-36.6,87.34 -56.93,183.43 -56.93,284.17l0 1445.51c0,397.51 337,593.56 702.27,722.75 1367.13,483.5 2734.25,483.5 4101.36,0 365.29,-129.19 702.29,-325.24 702.29,-722.75l0 -1445.51c0,-140.69 -39.61,-272.27 -107.87,-383.64l1117.76 -1762.23c138.69,135.8 361.22,133.4 496.99,-5.27 135.81,-138.69 133.41,-361.24 -5.28,-497.02 -138.7,-135.76 -361.21,-133.38 -497,5.31 -135.8,138.68 -133.4,361.2 5.29,496.98l-1458.01 968.96 635.09 -1631.35c162.28,106.48 380.16,61.25 486.65,-101.02 106.5,-162.28 61.26,-380.17 -100.99,-486.67 -162.29,-106.46 -380.16,-61.24 -486.67,101.04 -106.51,162.23 -61.26,380.13 100.99,486.64l0.02 0 -1243.88 1231.88 308.67 -1723.21c179.76,73.2 384.83,-13.19 458.07,-192.94 73.22,-179.76 -13.18,-384.86 -192.94,-458.06 -179.76,-73.19 -384.83,13.19 -458.05,192.95 -73.24,179.75 13.16,384.83 192.91,458.05l-983.02 1448.56 -29.33 -1750.39c190.49,37.19 375.06,-87.13 412.25,-277.63 37.19,-190.49 -87.11,-375.08 -277.62,-412.27 -190.5,-37.16 -375.07,87.14 -412.24,277.65 -37.21,190.5 87.11,375.06 277.61,412.25l-685.34 1610.91 -366.23 -2420.36 -361.92 2421.31 -689.4 -1609.2c190.42,-37.66 314.24,-222.55 276.6,-412.97 -37.67,-190.41 -222.57,-314.24 -412.99,-276.59 -190.4,37.66 -314.22,222.55 -276.55,412.97 37.64,190.42 222.53,314.23 412.94,276.59l-24.91 1750.47 -986.7 -1446.12c179.59,-73.63 265.45,-278.93 191.79,-458.51 -73.66,-179.59 -278.97,-265.46 -458.56,-191.8 -179.56,73.66 -265.41,278.97 -191.76,458.55 73.65,179.59 278.95,265.45 458.53,191.76l313.02 1722.44 -1246.96 -1228.73c161.99,-106.91 206.66,-324.9 99.77,-486.9 -106.9,-162.02 -324.9,-206.69 -486.92,-99.8 -162,106.89 -206.68,324.9 -99.76,486.92 106.89,162 324.89,206.68 486.9,99.78l639.21 1629.76zm2356.77 -3942.84c-194.09,0.25 -351.23,157.81 -351,351.91 0.23,194.1 157.8,351.23 351.88,351 194.09,-0.23 351.26,-157.81 351.03,-351.9 -0.23,-194.08 -157.82,-351.26 -351.91,-351.01zm-4310.22 2476.51c-138.34,136.12 -140.15,358.65 -4.03,497.01 136.13,138.37 358.65,140.16 497,4.04 138.36,-136.13 140.19,-358.65 4.05,-497.02 -136.12,-138.36 -358.65,-140.17 -497.02,-4.03z"/>
   <path class="fil1 str0" d="M5313.55 7083.19l-322.66 1437.7 -322.15 -1435.4 -1436.79 -315.89 1436.27 -328.92 322.67 -1437.7 322.14 1435.4 1436.79 315.89 -1436.27 328.92z"/>
  </g>
 </g>
</svg>
