<?xml version="1.0" encoding="UTF-8"?>
<!DOCTYPE svg PUBLIC "-//W3C//DTD SVG 1.1//EN" "http://www.w3.org/Graphics/SVG/1.1/DTD/svg11.dtd">
<!-- Creator: CorelDRAW 2019 (64-Bit Evaluation Version) -->
<svg xmlns="http://www.w3.org/2000/svg" xml:space="preserve" width="100mm" height="100mm" version="1.1" style="shape-rendering:geometricPrecision; text-rendering:geometricPrecision; image-rendering:optimizeQuality; fill-rule:evenodd; clip-rule:evenodd"
viewBox="0 0 10000 10000"
 xmlns:xlink="http://www.w3.org/1999/xlink"
 xmlns:xodm="http://www.corel.com/coreldraw/odm/2003">
 <defs>
  <style type="text/css">
   <![CDATA[
    .str0 {stroke:white;stroke-width:141.11;stroke-miterlimit:22.9256}
    .fil1 {fill:none}
    .fil0 {fill:black}
   ]]>
  </style>
 </defs>
 <g id="Layer_x0020_1">
  <metadata id="CorelCorpID_0Corel-Layer"/>
  <g id="_2244719585952">
   <path class="fil0 str0" d="M4378.74 1666.33l6.5 725.55 -520.17 34.81 8.67 -760.36 -775.92 0c-315.38,0 -573.35,257.98 -573.35,573.31l0 1007.21 767.96 487.36 150.82 2588 -1278.93 646.49 -217.87 799.27c-82.83,303.99 258.02,573.3 573.35,573.3l4952.8 0c315.33,0 656.18,-269.31 573.35,-573.3l-217.87 -799.27 -1278.93 -646.49 150.82 -2588 767.96 -487.36 0 -1007.21c0,-315.33 -257.97,-573.31 -573.35,-573.31l-775.92 0 8.67 760.36 -520.17 -34.81 6.5 -725.55 -1234.92 0z"/>
   <path class="fil1 str0" d="M3426.31 3197.67c541.4,54.76 1859.84,81.65 3134.01,-23.24"/>
   <path class="fil1 str0" d="M3561.94 6829.25c541.4,-54.76 1859.84,-81.65 3134.01,23.24"/>
  </g>
 </g>
</svg>
